<?xml version="1.0" encoding="UTF-8" standalone="no"?>
<!-- Generator: Adobe Illustrator 19.2.1, SVG Export Plug-In . SVG Version: 6.00 Build 0)  -->

<svg
   version="1.1"
   id="layer"
   x="0px"
   y="0px"
   viewBox="0 0 116.9944 30.282915"
   xml:space="preserve"
   sodipodi:docname="github-logo-vector.svg"
   width="116.9944"
   height="30.282915"
   xmlns:inkscape="http://www.inkscape.org/namespaces/inkscape"
   xmlns:sodipodi="http://sodipodi.sourceforge.net/DTD/sodipodi-0.dtd"
   xmlns="http://www.w3.org/2000/svg"
   xmlns:svg="http://www.w3.org/2000/svg"><defs
   id="defs22" /><sodipodi:namedview
   id="namedview20"
   pagecolor="#ffffff"
   bordercolor="#999999"
   borderopacity="1"
   inkscape:showpageshadow="false"
   inkscape:pageopacity="0"
   inkscape:pagecheckerboard="true"
   inkscape:deskcolor="#d1d1d1"
   showgrid="false"
   showborder="false"
   shape-rendering="auto"
   borderlayer="true" />
<style
   type="text/css"
   id="style13">
	.st0{fill:#24292E;}
	.st1{fill-rule:evenodd;clip-rule:evenodd;fill:#24292E;}
</style>
<path
   class="st0"
   d="m 69.674948,23.333667 h -0.04073 c 0.02037,0 0.02037,0.02037 0.04073,0.02037 h 0.02037 z m 0,0.02037 c -0.163029,0 -0.590987,0.08151 -1.039318,0.08151 -1.406135,0 -1.89522,-0.652121 -1.89522,-1.50803 v -5.665293 h 2.873404 c 0.163028,0 0.285292,-0.142648 0.285292,-0.346437 v -3.077192 c 0,-0.163028 -0.142644,-0.305676 -0.285292,-0.305676 H 66.74041 V 8.7017106 c 0,-0.1426552 -0.101894,-0.2241692 -0.26493,-0.2241692 h -3.912714 c -0.163035,0 -0.244549,0.101895 -0.244549,0.2241692 v 3.9330954 c 0,0 -1.976741,0.489092 -2.099009,0.509472 -0.142655,0.04073 -0.224169,0.163029 -0.224169,0.305684 v 2.465825 c 0,0.203789 0.142655,0.346437 0.305683,0.346437 h 1.997114 v 5.950596 c 0,4.422194 3.077193,4.870525 5.176209,4.870525 0.957796,0 2.119389,-0.305683 2.302797,-0.407578 0.101895,-0.04073 0.163025,-0.163028 0.163025,-0.285303 v -2.710375 c 0,-0.163028 -0.101891,-0.285303 -0.264919,-0.326056 z m 42.917642,-3.973856 c 0,-3.280981 -1.32463,-3.708932 -2.71038,-3.566284 -1.08007,0.06117 -1.95636,0.611367 -1.95636,0.611367 v 6.378547 c 0,0 0.87629,0.611359 2.20091,0.65212 1.85447,0.04073 2.46583,-0.63174 2.46583,-4.07575 z m 4.40181,-0.285303 c 0,6.215519 -2.0175,7.988471 -5.52265,7.988471 -2.97529,0 -4.56484,-1.508029 -4.56484,-1.508029 0,0 -0.0612,0.835529 -0.16303,0.937423 -0.0612,0.101895 -0.14264,0.142648 -0.26492,0.142648 h -2.66961 c -0.18341,0 -0.34644,-0.142648 -0.34644,-0.305676 l 0.0407,-20.1138331 c 0,-0.1630282 0.14266,-0.3056762 0.30569,-0.3056762 h 3.85158 c 0.16303,0 0.30568,0.142648 0.30568,0.3056762 v 6.8268861 c 0,0 1.48765,-0.957803 3.66818,-0.957803 l -0.0204,-0.04073 c 2.16014,0 5.37999,0.815148 5.37999,7.030667 z m -15.79353,-6.541586 h -3.81083 c -0.203789,0 -0.305684,0.142655 -0.305684,0.346444 v 9.84293 c 0,0 -0.998557,0.692881 -2.363931,0.692881 -1.345001,0 -1.752572,-0.61136 -1.752572,-1.976741 v -8.599831 c 0,-0.163028 -0.142655,-0.305683 -0.305683,-0.305683 h -3.871961 c -0.163028,0 -0.305683,0.142655 -0.305683,0.305683 v 9.272331 c 0,3.973855 2.221283,4.972412 5.278096,4.972412 2.526966,0 4.564841,-1.385754 4.564841,-1.385754 0,0 0.101898,0.713261 0.142648,0.815156 0.0407,0.08151 0.16304,0.163028 0.2853,0.163028 h 2.425079 c 0.20378,0 0.30568,-0.142655 0.30568,-0.305684 l 0.0407,-13.531489 c 0.0204,-0.163028 -0.14265,-0.305683 -0.32606,-0.305683 z m -42.917642,-0.02037 h -3.851586 c -0.16303,0 -0.305682,0.163028 -0.305682,0.366817 v 13.28694 c 0,0.366817 0.244546,0.489092 0.550227,0.489092 h 3.484766 c 0.366817,0 0.448331,-0.163029 0.448331,-0.489092 V 12.838602 c -0.02037,-0.163028 -0.163028,-0.305676 -0.326056,-0.305676 z M 56.367623,6.3989205 c -1.385755,0 -2.506586,1.1004516 -2.506586,2.5065871 0,1.3857544 1.100452,2.5065864 2.506586,2.5065864 1.365379,0 2.46583,-1.100459 2.46583,-2.5065864 0,-1.3857552 -1.100451,-2.5065871 -2.46583,-2.5065871 z M 86.242862,5.9505963 h -3.8312 c -0.163035,0 -0.305683,0.142648 -0.305683,0.3056763 V 13.653758 H 76.114622 V 6.2562726 c 0,-0.1630283 -0.142648,-0.3056763 -0.305676,-0.3056763 h -3.851588 c -0.163028,0 -0.305676,0.142648 -0.305676,0.3056763 V 26.370098 c 0,0.163036 0.163028,0.305684 0.305676,0.305684 h 3.851588 c 0.163028,0 0.305676,-0.142648 0.305676,-0.305684 v -8.59983 h 5.991357 l -0.04073,8.59983 c 0,0.163036 0.142655,0.305684 0.305683,0.305684 h 3.851581 c 0.163035,0 0.305683,-0.142648 0.305683,-0.305684 V 6.2562726 C 86.54856,6.0932443 86.405919,5.9505963 86.242891,5.9505963 Z M 52.067707,14.856104 v 10.393163 c 0,0.06117 -0.02038,0.203788 -0.101894,0.224169 0,0 -2.262041,1.609924 -5.991353,1.609924 -4.503704,0 -9.863315,-1.406135 -9.863315,-10.719227 0,-9.3130851 4.666734,-11.2286925 9.231574,-11.2083122 3.953478,0 5.54302,0.8966629 5.787565,1.0596983 0.06113,0.1018945 0.101894,0.1630283 0.101894,0.2445424 l -0.733635,3.2402211 c 0,0.163028 -0.16303,0.3668174 -0.366817,0.3056834 -0.652121,-0.2037894 -1.630301,-0.5909864 -3.933099,-0.5909864 -2.669617,0 -5.522642,0.7540154 -5.522642,6.7657444 0,5.991357 2.710374,6.704611 4.666734,6.704611 1.671058,0 2.262041,-0.203789 2.262041,-0.203789 v -4.157263 h -2.669616 c -0.203787,0 -0.346439,-0.142655 -0.346439,-0.305684 v -3.342115 c 0,-0.163028 0.142652,-0.305676 0.346439,-0.305676 h 6.786124 c 0.203787,-0.02037 0.346439,0.122267 0.346439,0.285296 z m 0,0"
   id="path15"
   style="fill:#ffffff;stroke-width:0.999998" />
<path
   class="st1"
   d="M 15.528608,0 C 6.949154,0 3.9471434e-8,6.9491535 3.9471434e-8,15.528604 3.9471434e-8,22.396243 4.4425675,28.204191 10.617329,30.262439 c 0.774392,0.122275 1.080074,-0.326056 1.080074,-0.733634 0,-0.366817 -0.02038,-1.589543 -0.02038,-2.893777 C 7.7846814,27.348282 6.765744,25.677225 6.4600628,24.821316 6.2766542,24.372984 5.5226402,22.98723 4.8705199,22.620413 4.3202934,22.335109 3.5459013,21.601475 4.8501396,21.581095 c 1.2227257,-0.02037 2.0990116,1.120832 2.3843139,1.589543 1.4061337,2.343558 3.6274175,1.691438 4.5240825,1.28386 0.142651,-0.998557 0.550226,-1.691438 0.998559,-2.078635 -3.4440088,-0.38719 -7.0714266,-1.732191 -7.0714266,-7.662407 0,-1.691438 0.6113626,-3.097573 1.5895429,-4.177644 C 7.1121809,10.148614 6.582334,8.5590704 7.438241,6.4193009 c 0,0 1.3042402,-0.4075708 4.279538,1.5895434 1.243103,-0.3464368 2.567722,-0.5298454 3.871962,-0.5298454 1.324619,0 2.628859,0.1834086 3.871963,0.5298454 2.975297,-2.0174945 4.259158,-1.5895434 4.259158,-1.5895434 0.855908,2.1397695 0.305682,3.7293131 0.16303,4.1165111 0.998559,1.080071 1.589543,2.465825 1.589543,4.177644 0,5.950596 -3.627418,7.275217 -7.091805,7.662407 0.570605,0.489092 1.059695,1.406135 1.059695,2.873404 0,2.078635 -0.02038,3.749693 -0.02038,4.259165 0,0.407571 0.285303,0.896663 1.059695,0.733634 C 26.798053,28.102297 31.057212,22.172081 31.057212,15.508224 31.057212,6.9491535 24.108058,0 15.528604,0 Z m 0,0"
   id="path17"
   style="fill:#ffffff;stroke-width:0.999998" />
</svg>
