<svg xmlns="http://www.w3.org/2000/svg" xmlns:xlink="http://www.w3.org/1999/xlink" viewBox="0 0 122 103.7"><defs><linearGradient id="linear-gradient" x1="13.8" x2="13.8" y1="48.5" y2="27.5" gradientTransform="rotate(-14.1 80.3 -45.4)" gradientUnits="userSpaceOnUse"><stop offset="0" stop-color="#dbffff"/><stop offset="1" stop-color="#339ed3"/></linearGradient><linearGradient xlink:href="#linear-gradient" id="linear-gradient-2" x1=".1" x2=".1" y1="48.5" y2="27.5"/><linearGradient xlink:href="#linear-gradient" id="linear-gradient-3" x1="-13.2" x2="-13.2" y1="48.7" y2="27.5"/><linearGradient xlink:href="#linear-gradient" id="linear-gradient-4" x1="81.7" x2="81.7" y1="93" y2="59.4" gradientTransform="rotate(-2.1 94 84.8)"/><linearGradient xlink:href="#linear-gradient" id="linear-gradient-5" x1="78.7" x2="78.7" y1="1.4" y2="10.9" gradientTransform="rotate(-2.1 94 84.8)"/><style>.cls-1{fill:#755b46}.cls-2{fill:#4c1a09}.cls-3{fill:none;stroke:#4c1a09;stroke-linecap:round;stroke-linejoin:round;stroke-width:.6px}.cls-4{fill:#b7eae8}.cls-5{fill:#3c7bd6}.cls-7{fill:#5b2307}.cls-16{fill:#fff}</style></defs><g id="Layer_2" data-name="Layer 2"><g id="Layer_1-2" data-name="Layer 1"><path d="M55.4 98.4a1 1 0 0 1-1-.9c-.1-1 1-2.1 2-3.2l-3.8 1.2-4.4 1.3a2.9 2.9 0 0 1-.7.1 1.8 1.8 0 0 1-1.9-1.2 2 2 0 0 1 1-2.3 32.8 32.8 0 0 1 4.4-1.9c-2.8-.4-4-1-4-2s1.4-1.5 2.8-1.6a28.3 28.3 0 0 1 2.8-.1l5.7.1c.3 0 8.7.4 9.1 2.7.2 1.3-1.8 2.3-4 3.4l-1.8 1-1.6 1c-2.2 1.4-3.7 2.4-4.6 2.4Z" class="cls-1"/><path d="m52.6 88.4 5.6.1c4.2.2 8.4 1 8.6 2.2s-3.5 2.6-5.5 3.8c-1.7 1-4.8 3.3-6 3.3-.2 0-.3-.1-.3-.4-.2-1.4 4-4.4 4-4.4-2.6.7-9.3 2.9-11 3.3a2.2 2.2 0 0 1-.6.1c-1.4 0-1.9-1.5-.6-2.3 1.5-1 9.2-3.7 9.1-3.7l-4 .7c-6.5-.8-4.6-2.3-2.2-2.5a27.5 27.5 0 0 1 2.8-.1m0-1.2h-3c-2 .3-3.2 1.1-3.2 2.3s1 1.8 2.5 2.2a18.3 18.3 0 0 0-2.6 1.3A2.6 2.6 0 0 0 45 96a2.4 2.4 0 0 0 2.4 1.7 3.4 3.4 0 0 0 .8-.1l4.4-1.4 1.8-.5a3 3 0 0 0-.7 2 1.6 1.6 0 0 0 1.6 1.4c1 0 2.6-1 5-2.5l1.6-1 1.7-1c2.6-1.2 4.6-2.3 4.3-4-.4-2.5-6.9-3-9.7-3.1l-5.7-.2Z" class="cls-2"/><path d="M49 92.4a3 3 0 0 1 1.5 3.5m2.5-4.8s3.1 0 2.6 3.2M51 88s1.5 1 .4 3.4M57 94a2.5 2.5 0 0 1 2.7 2.3m-4.6-8.4c.1.2 1.7.4 1.6 2.1 0 0 2.8-.2 3.1 2.3 0 0 2.9-.4 3 1.8" class="cls-3"/><path d="M76.4 103.1a1.3 1.3 0 0 1-1.4-1c-.5-1.8 2.6-4.4 5-6.2l-2 .3a31.7 31.7 0 0 1-4 .6c-.2 0-1 0-1.1-.6s.5-1 1.2-1.4c3.3-1.9 11.2-3.3 12-3.5s7.4-2.8 10.4-2.8a1.9 1.9 0 0 1 1.6.7 1.3 1.3 0 0 1 0 1.3c-1.3 2.9-6.7 11.2-9.6 11.2a1.6 1.6 0 0 1-.5-.1 1.5 1.5 0 0 1-1-1c-.3-.9.2-2.1.8-3.2l-1 .6a30.8 30.8 0 0 1-10.4 5.1Z" class="cls-1"/><path d="M96.5 89.2c1 0 1.5.3 1.2 1.1-1.5 3.2-6.8 10.8-9.2 10.8a1.3 1.3 0 0 1-.2 0c-2.3-.6 1.6-5.4 1.6-5.4-2 .9-10.8 6.9-13.5 6.9-.5 0-.7-.2-.8-.5-.6-2.5 7.5-7.4 7.5-7.4l-2.2.6c-1.6.1-5.4 1-6.8 1-.7 0-.8-.2.3-.9 3.5-1.9 12-3.4 12-3.4s7.2-2.8 10.1-2.8m0-1.2c-3 0-9.3 2.4-10.5 2.9a54 54 0 0 0-12.2 3.5c-.6.3-1.7 1-1.4 2 .1.5.5 1 1.7 1a27.6 27.6 0 0 0 3.6-.4c-2 1.7-3.7 3.7-3.3 5.4a1.9 1.9 0 0 0 2 1.4c2 0 5.8-2.1 10.2-4.8a3.1 3.1 0 0 0-.1 1.9 2 2 0 0 0 1.5 1.3 2 2 0 0 0 .6.1c3.6 0 9.3-9.5 10.2-11.5a1.9 1.9 0 0 0 0-2 2.5 2.5 0 0 0-2.3-.8Z" class="cls-2"/><path d="M76.3 99.2s3.5-.5 4 2.6m-.9-5.4s5.8-1.3 6.1 2.5m-8.7-5.2a2.1 2.1 0 0 1 .5 2.6m10.1 1.9s3-2.2 5.6-.1m-10.5-5.3a1.5 1.5 0 0 1 1.9 1s4.3-1.2 6.2.8c0 0 3.8-2.4 5.6-.5" class="cls-3"/><path d="M65.2 92.1a11.7 11.7 0 0 1-5.7-1.4c-6-3.3-5.4-10.2-5.4-10.3a.6.6 0 0 1 .6-.6h.4c8.8 0 17.5 9.1 17.9 9.5a.6.6 0 0 1 .1.5.6.6 0 0 1-.3.5 18.1 18.1 0 0 1-7.6 1.8Z" class="cls-4"/><path d="M55 80.5c8.8 0 17.5 9.3 17.5 9.3a17.6 17.6 0 0 1-7.3 1.7 11 11 0 0 1-5.4-1.3c-5.8-3.2-5-9.7-5-9.7h.3m0-1.3h-.4a1.2 1.2 0 0 0-1.2 1.1c0 .3-.7 7.4 5.7 11a12.2 12.2 0 0 0 6 1.4 18.7 18.7 0 0 0 8-1.9 1.2 1.2 0 0 0 .5-.9 1.3 1.3 0 0 0-.3-1c-.4-.3-9.2-9.6-18.3-9.6Z" class="cls-5"/><path fill="#a36731" d="M79.8 89.7h-2.2c-24-1.4-34.5-14-35.7-22a27.6 27.6 0 0 1 .3-9.9 3 3 0 0 1-1.7.9 1.2 1.2 0 0 1-.9-.4 2.8 2.8 0 0 1-.4-2 13 13 0 0 1 2.5-6.2 4.6 4.6 0 0 1-2 .9 1 1 0 0 1-.8-.3 1.7 1.7 0 0 1-.4-1.3c0-2.1 2.7-4.3 3.7-5A40.6 40.6 0 0 1 40.7 27a29 29 0 0 1 10-17.4c-1.2-.2-2.3-.7-2.5-1.6 0-.5.1-1.3 1.7-2a13.8 13.8 0 0 1 3.5-.9c-1-.3-1.6-.8-1.8-1.3 0-.4 0-1 .8-1.5a4.4 4.4 0 0 1 2.5-.6 14 14 0 0 1 4.4 1 2 2 0 0 1-.3-1.6 1 1 0 0 1 .8-.6 1.4 1.4 0 0 1 .2 0c1.4 0 3.4 1.8 4 2.5h3a30.5 30.5 0 0 1 29.9 20.6c2.5 6.2 7.4 9 13 12.2a29.1 29.1 0 0 1 10.3 10 .8.8 0 0 1 0 .9.8.8 0 0 1-.8.3 20 20 0 0 1 1.9 7.1.8.8 0 0 1-.3.6.8.8 0 0 1-.6.2 1 1 0 0 1-.3 0c1 3.2.9 7.2.1 8a44.9 44.9 0 0 0-3.4 6.5 48 48 0 0 1-36.9 20.3Z"/><path d="M60 1.2c1.4 0 3.8 2.5 3.8 2.5l3-.1a30.1 30.1 0 0 1 29.4 20.2c2.5 6.4 7.5 9.2 13.3 12.5a28.5 28.5 0 0 1 10 9.8c0 .2 0 .3-.3.3a5.8 5.8 0 0 1-1.6-.4c2.2 2.3 2.8 7.4 2.9 8.1 0 .2-.1.2-.3.2a5 5 0 0 1-1.6-.7c1.9 3 1.7 8.2 1 9a40.5 40.5 0 0 0-3.6 6.7c0 .6-14.2 19.8-36.2 19.8h-2.2c-23.3-1.4-33.9-13.5-35.1-21.5a26.3 26.3 0 0 1 1.8-14.1 10.4 10.4 0 0 0-2 3.5s-1 1.1-1.8 1.1c-.5 0-.8-.4-.8-1.8.2-3.6 4-7.9 4-7.9-1.7.5-3.3 2-4.1 2-.4 0-.6-.2-.6-.9 0-2.3 3.9-4.9 3.9-4.9S40 38 41.2 27.3s11-18 11-18c-3 0-4.8-1.3-2.1-2.6s7.4-1.1 7.7-1.1S50 4.7 52.7 3a3.9 3.9 0 0 1 2.1-.5 18 18 0 0 1 6.4 1.7s-2.7-2.7-1.4-3h.2M60 0a1.8 1.8 0 0 0-.4 0 1.6 1.6 0 0 0-1.3 1 1.6 1.6 0 0 0 0 .8 12.8 12.8 0 0 0-3.5-.6A5 5 0 0 0 52 2a1.9 1.9 0 0 0-1 2 1.6 1.6 0 0 0 .6 1 11.6 11.6 0 0 0-2 .6c-2 1-2.2 2.1-2 2.7a2.6 2.6 0 0 0 1.8 1.8 29 29 0 0 0-9.3 17 42.1 42.1 0 0 0 1.4 17c-1.3 1-3.6 3.2-3.6 5.4a2.4 2.4 0 0 0 .5 1.7 1.6 1.6 0 0 0 1.2.4 2.6 2.6 0 0 0 .5 0 11 11 0 0 0-1.6 4.7 3.2 3.2 0 0 0 .7 2.5 1.7 1.7 0 0 0 1.3.6 2.3 2.3 0 0 0 .9-.2 27.8 27.8 0 0 0-.1 8.6c1.2 8.3 11.9 21 36.2 22.5h2.3c11.8 0 21.2-5.4 27-9.9 6.2-4.7 10.3-10 10.4-11a.4.4 0 0 1 0 .2 45.1 45.1 0 0 1 3.3-6.2c.9-1 1.1-4.8.3-7.9a1.4 1.4 0 0 0 .5-.4 1.4 1.4 0 0 0 .4-1 21.5 21.5 0 0 0-1.7-6.6 1.4 1.4 0 0 0 .5-.4 1.4 1.4 0 0 0 .1-1.4 29.7 29.7 0 0 0-10.4-10.4c-5.6-3.1-10.4-5.8-12.9-11.9A31 31 0 0 0 67 2.4l-2.6.1c-1-1-2.8-2.5-4.3-2.5Z" class="cls-7"/><path fill="#8e5424" d="M116 69.3a40.5 40.5 0 0 1 3.6-6.8c.7-.7.9-6-1-9 0 0 2 1.3 2 .6s-.7-5.8-3-8.1c0 0 2.2.9 2 .1a28.5 28.5 0 0 0-10-9.8 49.8 49.8 0 0 1-8-5.2s8.2 8.1 8 16.1-3.8 5-3.8 5L99 49s2.4 5.9-1 8-4.6.2-4.6.2 1.4 3.8-3 5-16.4 1.6-21.7.8-12.3-2.8-13-6.6-1.6-4.3-1.6-4.3-4.9 7-5.6 3.7a11.9 11.9 0 0 1 .1-5.8s-4.1 2.8-3.7 1a22 22 0 0 1 1.3-3.9 13 13 0 0 1-3.5-2.3c-.8.6-3.6 2.7-3.6 4.7 0 2.3 2.2-.4 4.6-1 0 0-3.8 4.2-4 7.8s2.5.7 2.5.7a10.4 10.4 0 0 1 2-3.5 26.3 26.3 0 0 0-1.8 14.2c1.2 8 11.8 20 35.1 21.4s38.4-19.2 38.5-19.8Z"/><path fill="#bd852d" d="M104.9 66.3C94 65.3 73.3 58 75.5 47.8S85.8 40 88.2 27.3 77.2 7.4 67.2 9 52.4 20.9 52 21.6s-5.3 1-7.2.6-1.2-2.5-1.1-2.6a21.8 21.8 0 0 0-2.4 7.7c-1.1 10.6 1.6 17.3 1.6 17.3s-3.8 2.6-3.8 5 2.3-.5 4.7-1.2c0 0-3.9 4.3-4 8s2.5.6 2.5.6a10.4 10.4 0 0 1 2-3.5 26.3 26.3 0 0 0-1.8 14.2c1.2 8 11.8 20 35.1 21.4C97.2 90.1 111 76 115 71c-2-2.5-5.5-4.3-10-4.7Z"/><path fill="none" stroke="#5b2307" stroke-linecap="round" stroke-linejoin="round" stroke-width="1.2" d="M56.2 32.8a20 20 0 0 1 3.4 2.7"/><path fill="#91682c" d="M80.3 89.1h2l1.3-.1h.7l1.2-.2.6-.1 1.7-.4h.1c.6 0 1.2-.2 1.8-.4l.5-.1 1.2-.4.6-.2 1.1-.4.6-.2 1.1-.4.5-.2 1.4-.6.2-.1 1.5-.8.3-.1 1.2-.7.4-.2 1-.6.4-.3 1-.6.4-.2 1-.8.2-.1 1.2-1h.2l1-.8.3-.3.8-.6.3-.3.7-.6.3-.3.7-.6.3-.2.8-.8.3-.3.5-.5.4-.4.4-.4.3-.4.3-.3.4-.4.2-.2.3-.5.9-1c-2-2.5-5.5-4.3-10-4.8a58.7 58.7 0 0 1-15.4-3.8 80 80 0 0 1-20.7.6c-5.3-.8-12.3-2.8-13-6.6s-1.6-4.3-1.6-4.3-4.9 7-5.6 3.7a11.9 11.9 0 0 1 .1-5.8s-4.1 2.8-3.7 1a22 22 0 0 1 1.3-3.9 13 13 0 0 1-3.5-2.3l-.2.1-.3.2-.2.2-.3.2v.1l-.3.2-.1.1-.3.2v.1l-.3.3c-.1.1 0 0 0 0a9.3 9.3 0 0 0-.7.8H40l-.2.4v.1c-.2 0-.2.2-.3.3v.1a2 2 0 0 0-.1.3l-.1.1v.3a.7.7 0 0 0 0 .1 2.7 2.7 0 0 0 0 .5c0 2.3 2.2-.4 4.6-1.1 0 0-3.9 4.2-4 7.9s2.4.7 2.4.7a10.4 10.4 0 0 1 2-3.5 26.3 26.3 0 0 0-1.8 14.2c1.2 8 11.8 20 35.1 21.4h2Z"/><path fill="#a18f70" d="M2.8 50.5a.6.6 0 0 1-.3-1.2c24.1-13.6 53-16.7 53.3-16.7a.6.6 0 0 1 .5.2.6.6 0 0 1 .1.6c-.7 1.7-5.8 5-6.9 5.7a.6.6 0 0 1-.3 0C38.2 39.3 3.3 50.4 3 50.5Z"/><path d="M55.8 33.2c-.6 1.5-6.6 5.4-6.6 5.4C38 38.6 2.8 49.9 2.8 49.9c24.3-13.8 53-16.7 53-16.7m0-1.2h-.1c-1 0-29.5 3.2-53.5 16.8a1.2 1.2 0 0 0 1 2.2c.3-.1 35.1-11.2 46-11.2a1.2 1.2 0 0 0 .7-.2c1.9-1.2 6.2-4.1 7-5.9a1.2 1.2 0 0 0 .2-.5 1.2 1.2 0 0 0-1.3-1.2Zm0 2.4Z" class="cls-7"/><path fill="url(#linear-gradient)" d="M36.8 62c-.5 0-1-1-2.2-6.5l-.3-1.6a3.6 3.6 0 0 0-.6-.9 3 3 0 0 1-.7-1.5c0-.5-1.4-6-2.4-9.6v-.2l.2-.1a14.5 14.5 0 0 1 4.6-1.1h.3v.3l.8 7.4a6.7 6.7 0 0 1-.2 2.5 3.1 3.1 0 0 0-.1 1.5s2 9.4.7 9.8h-.1Z"/><path d="m35.4 40.8.8 7.4c.3 2-.5 2.8-.3 4s1.7 9.2 1 9.4c-.8 0-2-7.2-2.3-7.9s-1.2-1.5-1.3-2.2L31 41.8a14.6 14.6 0 0 1 4.4-1m.6-.7h-.6a14.8 14.8 0 0 0-4.7 1.1l-.4.2v.5c1 3.4 2.4 9 2.4 9.5a3.3 3.3 0 0 0 .8 1.7 3.4 3.4 0 0 1 .5.9l.4 1.6c1.2 5.9 1.6 6.7 2.4 6.7h.2c.6-.2 1-.6.4-5a72 72 0 0 0-.8-5.1 2.7 2.7 0 0 1 0-1.3 7.2 7.2 0 0 0 .2-2.7l-.8-7.4v-.6Z" class="cls-5"/><path fill="url(#linear-gradient-2)" d="M23.5 64.8c-.5 0-1-.6-1.8-3.5-.6-2.3-1.5-4.5-1.7-5-.6-.3-1-1.5-1.6-3.4l-2.5-7-.2-.3h.3c.2-.2 5.6-2.6 7.3-2.6a.8.8 0 0 1 .7.3.5.5 0 0 1 0 .4 59.2 59.2 0 0 0 1 6.2c1 5.9.8 5.9.4 6-.5 0-.8-.7-1.4-2.7l-.2-.5-1.7-3.8a37.7 37.7 0 0 0 .7 4 19.4 19.4 0 0 1 .3 4.4l.4 2.5c.7 4.3.7 4.8.3 5a.6.6 0 0 1-.3 0Z"/><path d="M23.3 43.4c.3 0 .5 0 .5.3-.2 1.3 2 11.8 1.6 12-.4 0-1-2.3-1.3-3l-2.6-5.5s.7 4.7 1 5.8a18.1 18.1 0 0 1 .4 4.3c0 .9 1.2 7 .8 7.2-.5 0-1-.8-1.6-3.3L20.3 56c-.6 0-1.1-1.5-1.6-3.2s-2.6-7-2.6-7 5.5-2.4 7.2-2.4m0-.6c-1.7 0-6.8 2.2-7.4 2.5l-.5.2.2.5s2 5.3 2.5 7c.6 1.9 1 3 1.7 3.4l1.6 5c.8 2.7 1.3 3.7 2.1 3.7a1 1 0 0 0 .4 0c.6-.3.6-.9-.1-5.3a31 31 0 0 1-.4-2.5 18.7 18.7 0 0 0-.4-4.5 16.7 16.7 0 0 1-.4-1.9l.9 1.9.1.5c.7 2.1 1 3 1.7 3h.2c.7-.2.7-.4-.3-6.4a61.1 61.1 0 0 1-.9-6.1.8.8 0 0 0-.2-.7 1.1 1.1 0 0 0-.8-.3Z" class="cls-5"/><path fill="url(#linear-gradient-3)" d="M10.8 64.1c-.4 0-.6-.4-2.3-5l-1.4-3.7-2.4-5.6-.1-.2.2-.1C5 49.2 8 47 9.2 47a.7.7 0 0 1 .6.3c.3.7.3 3.2.3 6.2V55l.5 4c.8 4.4.7 4.8.4 5h-.1Z"/><path d="M9.2 47.4a.3.3 0 0 1 .3.1c.4 1 .3 6 .3 7.6s1.5 8.5 1 8.7c-.5 0-2.4-6-3.5-8.5L5 49.7s3-2.3 4.2-2.3m0-.6c-1.2 0-3.8 1.8-4.6 2.4l-.3.3.1.4 2.4 5.6c.4 1 1 2.4 1.4 3.8 1.8 4.7 2 5.1 2.6 5.1h.3c.6-.3.6-.7-.1-5.3-.3-1.6-.6-3.3-.6-4v-1.5c0-3.1 0-5.6-.3-6.3a1 1 0 0 0-1-.5Z" class="cls-5"/><path d="m34.9 41.4.7 6.8a5.8 5.8 0 0 1-.2 2.3 3.7 3.7 0 0 0 0 1.8l1 6.6-.9-3.6-.4-1.7a4.3 4.3 0 0 0-.6-1.1 2.5 2.5 0 0 1-.6-1c0-.8-1.7-7.1-2.3-9.3a14.3 14.3 0 0 1 3.3-.8m.5-.6a14.6 14.6 0 0 0-4.5 1s2.4 9 2.4 9.7 1 1.6 1.2 2.3 1.6 7.9 2.3 7.9c.7-.3-.6-8.3-.9-9.5s.5-2 .3-4l-.8-7.4ZM23.2 44c0 1 .3 3 .8 6l.3 1.5-2.2-4.6-1.2-2.3a10.9 10.9 0 0 1 2.3-.6m-2.6.7.3 2.5c0 .2.6 4.8 1 6a17.4 17.4 0 0 1 .3 4 23.4 23.4 0 0 0 .4 2.8 108.8 108.8 0 0 1 0 1c-.8-2.7-1.7-5.1-1.8-5.2l-.1-.3h-.3a119.2 119.2 0 0 0-3.5-9.3l3.7-1.4m2.7-1.4c-1.7 0-7.2 2.5-7.2 2.5s2.1 5.3 2.6 7 1 3 1.6 3.2c0 0 1 2.5 1.7 5.1.7 2.5 1.1 3.4 1.5 3.4a.2.2 0 0 0 .2 0c.4-.2-.9-6.3-.9-7.2a18.1 18.1 0 0 0-.3-4.3c-.4-1.1-1-5.9-1-5.9s2.3 4.6 2.5 5.5 1 3 1.3 3c.4-.1-1.7-10.6-1.6-12 0-.2-.1-.3-.5-.3ZM9 48a41 41 0 0 1 .2 5.6v1.6l.5 4 .2 1.2-.6-1.5L8 55l-2.2-5.1A13.7 13.7 0 0 1 9 48m.1-.6c-1 0-4.1 2.3-4.1 2.3l2.4 5.6c1 2.5 3 8.5 3.4 8.5.5-.1-1-7-1-8.6s.2-6.8-.3-7.7a.3.3 0 0 0-.3-.1Z" class="cls-16"/><path d="M33.8 45.9c.2.7 0 1.3-.4 1.4s-1-.4-1-1 0-1.4.4-1.5.8.4 1 1ZM20 50.1c.3 1 0 2-.4 2s-1-.6-1.2-1.6-.1-2 .4-2 .9.6 1.2 1.6Z" class="cls-16"/><path fill="#ceb891" d="M1.2 51.2a.6.6 0 0 1-.5-.2.6.6 0 0 1 .1-.8c17.7-15.4 46.5-21.6 46.8-21.6a.4.4 0 0 1 .2 0 21.8 21.8 0 0 1 8.4 4.1.6.6 0 0 1-.3 1A192.1 192.1 0 0 0 1.5 51.3a.6.6 0 0 1-.3 0Z"/><path d="M47.7 29.2a21.2 21.2 0 0 1 8.1 4C28 36.8 1.2 50.6 1.2 50.6 19 35.2 47.7 29.2 47.7 29.2m0-1.2h-.3c-1.2.2-29.2 6.2-47 21.7a1.2 1.2 0 0 0 .8 2.1 1.3 1.3 0 0 0 .6-.1C2 51.6 28.7 38 56 34.4a1.2 1.2 0 0 0 1-.9 1.2 1.2 0 0 0-.4-1.2A22.4 22.4 0 0 0 48 28a1.4 1.4 0 0 0-.3 0Z" class="cls-7"/><path d="m53.4 33.5 2.2-.5a21.6 21.6 0 0 0-8-3.8S19 35.2 1.3 50.6C11.5 42.3 38 33.3 43 31.6s10.4 1.9 10.4 1.9Z" class="cls-16"/><path d="M90.3 93c-2.8 0-4.1-1.1-4.6-1.8l-4.8.2a59.5 59.5 0 0 1-20.3-3.3c-9.8-3.7-12-6-13.3-7.5a6.4 6.4 0 0 0-.7-.8 5.6 5.6 0 0 1-1.8-3 4 4 0 0 0-.2-.5l-.1-.1c-2.5-2.2-3.8-4.5-3.9-6.8v-2c-.2-2.7-.4-5.4.8-6.7a2 2 0 0 1 1.5-.6 3.7 3.7 0 0 1 .9 0 .6.6 0 0 1 .4.7c0 .8.3 3 1.4 3.7 1.7 1.2 5.9 3.5 8.1 3.5h.3c1.8-.2 1.8-.7 1.7-1.5 0-1 .3-3.6 2.3-4.2a2.6 2.6 0 0 1 .7 0 2.3 2.3 0 0 1 2 1.5.7.7 0 0 0 .1.2 3.8 3.8 0 0 1 .5.2 8.2 8.2 0 0 1 3 1.9 22.6 22.6 0 0 0 6.1 4 4.7 4.7 0 0 0 1.7.5.6.6 0 0 0 .3 0v-1.2c.2-2.2.3-2.8.7-3.1l.5-.3c.5-.5.9-.8 1.2-.8h.2c.3 0 .5.2 1.5 2.2a3.3 3.3 0 0 1 2.9-.3 29 29 0 0 0 5.6 1.5h2.5a24.6 24.6 0 0 1 5 .2 17.3 17.3 0 0 0 2.4 1l.1-.1c1-1.5 2-3.2 3.3-3.5l1.5-.4c.3-1.4.6-3.4.3-4.2-.5-1.5-1.3-3.5.2-4.8a2 2 0 0 1 1.3-.5c1.6 0 3.1 1.8 3.6 2.4 1.1 1.5 1.7 2.3 1.4 3.3a17 17 0 0 0-.1 2.8 13.3 13.3 0 0 0 2 .2 15.2 15.2 0 0 0 3.4-.4c0-.9 0-2.4 1.2-3a6 6 0 0 1 2.2-.4 1.7 1.7 0 0 1 1 .2l.2.2c-.5-4 0-4.2.4-4.4a1.6 1.6 0 0 1 .7-.2 3.6 3.6 0 0 1 2.2 1c.7.8 1.8 2.4 1.6 3.4a14 14 0 0 1-2 4.1 7.2 7.2 0 0 0-1.2 4.2c0 1.1-1.2 2.3-2.3 3.2a7.9 7.9 0 0 0-.8.8c-.1.1-9.1 14.3-17.6 17.6a20.8 20.8 0 0 1-7.2 1.6ZM60 67a.9.9 0 0 0-.6.3 1.1 1.1 0 0 0-.3.8c0 1.4.8 4.9 2.3 4.9h.2a1.8 1.8 0 0 0 1.4-1.6c.3-1.1-.3-2.9-2.4-4.2a1.1 1.1 0 0 0-.6-.2Z" class="cls-4"/><path d="M101.6 57c1 0 2.2 1 3 2 1.2 1.5 1.6 2.2 1.4 2.8a23.8 23.8 0 0 0-.1 3.5 12.5 12.5 0 0 0 2.6.3 16.3 16.3 0 0 0 4-.5s-.4-2.4.8-2.8a5.2 5.2 0 0 1 2-.5 1.5 1.5 0 0 1 .6.1l1.4 1s-.8-4.9-.2-5.2a.9.9 0 0 1 .4-.1 3.2 3.2 0 0 1 1.8 1 4.3 4.3 0 0 1 1.5 2.7 13.6 13.6 0 0 1-2 3.9 7.8 7.8 0 0 0-1.3 4.5c0 1.3-2.6 3-3 3.6s-9.1 14.2-17.2 17.4a19.8 19.8 0 0 1-7 1.6c-2.8 0-4-1.1-4.3-1.7 0 0-2 .2-5 .2a59.4 59.4 0 0 1-20-3.3c-12-4.4-12.5-7-14-8.1s-1.6-3.1-2-3.5-3.7-3-3.8-6.5c0-3.3-1-8.7 1.7-8.7a2.5 2.5 0 0 1 .7.1s0 3.1 1.7 4.3 6 3.5 8.4 3.5a2.6 2.6 0 0 0 .4 0c2.3-.3 2.3-1.3 2.3-2s.2-3.2 1.8-3.6a2.4 2.4 0 0 1 .5-.1c1.1 0 1.4 1.1 1.6 1.4s2.2.7 3.6 2.2a23 23 0 0 0 6.3 4.2 5.4 5.4 0 0 0 2 .5c.5 0 .8-.2.8-.6.2-.7.1-3.6.5-3.8s1.1-1 1.4-1a17 17 0 0 1 1.3 2.6 2.8 2.8 0 0 1 2-1 2.9 2.9 0 0 1 1 .2 29.4 29.4 0 0 0 5.8 1.6h2.5a27.5 27.5 0 0 1 4.7.2 13.4 13.4 0 0 0 3 1 .2.2 0 0 0 .1 0c.2-.3 1.8-3.2 3.1-3.6l2-.5s.8-3.6.3-5-1.2-3 0-4a1.4 1.4 0 0 1 1-.3M61.3 73.7h.2c2.3-.4 3.3-4.4-.7-7a1.7 1.7 0 0 0-1-.2 1.5 1.5 0 0 0-1.4 1.8c0 1.4.7 5.4 2.9 5.4m40.2-18a2.6 2.6 0 0 0-1.8.7c-1.7 1.5-.8 4-.3 5.3a9.5 9.5 0 0 1-.2 3.6l-1.2.3c-1.3.4-2.5 1.9-3.5 3.5l-2-.8c-.1-.1-.7-.4-5.2-.4H85a29.4 29.4 0 0 1-5.3-1.4 4 4 0 0 0-1.3-.2 3.8 3.8 0 0 0-1.5.3c-.9-1.8-1.1-1.9-1.5-2a1.6 1.6 0 0 0-.4 0 2.8 2.8 0 0 0-1.7.9 4.6 4.6 0 0 1-.3.3c-.8.4-.8 1.3-1 3.5v.7a5.7 5.7 0 0 1-1.1-.4 21.6 21.6 0 0 1-6-3.9 8.8 8.8 0 0 0-3.2-2l-.3-.2a2.8 2.8 0 0 0-2.5-1.8 3.4 3.4 0 0 0-.9.1c-2.3.6-2.8 3.4-2.7 4.8 0 .5 0 .7-1.2.8h-.3a21 21 0 0 1-7.7-3.3c-1-.6-1.1-2.6-1.1-3.2a1.2 1.2 0 0 0-1-1.2 3.9 3.9 0 0 0-1-.2 2.6 2.6 0 0 0-2 .9c-1.3 1.4-1.1 4.3-1 7l.2 2c0 2.5 1.4 5 4 7.3l.1.4a6.2 6.2 0 0 0 2 3.2 7 7 0 0 1 .7.7c1.4 1.5 3.6 4 13.6 7.7A60.3 60.3 0 0 0 80.9 92l4.5-.1a6.4 6.4 0 0 0 4.8 1.6 21.4 21.4 0 0 0 7.5-1.7c8.8-3.4 17.8-17.7 17.9-17.8a8.5 8.5 0 0 1 .7-.7c1.1-1 2.5-2.2 2.5-3.6a6.7 6.7 0 0 1 1-3.8 14.5 14.5 0 0 0 2.2-4.4c.2-1.3-1-3.1-1.9-3.9a4.1 4.1 0 0 0-2.5-1.2 2.1 2.1 0 0 0-1 .3c-.5.2-1.1.6-.8 4a3.5 3.5 0 0 0-.5 0 6.8 6.8 0 0 0-2.5.5 3 3 0 0 0-1.5 3 15.6 15.6 0 0 1-2.7.2 14.3 14.3 0 0 1-1.5 0 15.3 15.3 0 0 1 .1-2.2c.4-1.3-.4-2.2-1.6-3.9-.4-.6-2-2.5-4-2.5ZM61.4 72.5c-.8 0-1.7-2.5-1.7-4.3a.6.6 0 0 1 0-.4.3.3 0 0 1 .3-.1.5.5 0 0 1 .2 0c2 1.3 2.4 2.7 2.2 3.7a1.3 1.3 0 0 1-1 1Z" class="cls-5"/><path fill="url(#linear-gradient-4)" d="M117.1 57.7c-.6.3.2 5.2.2 5.2l-1.4-1a4.3 4.3 0 0 0-2.6.4c-1.2.5-.7 2.8-.7 2.8a16 16 0 0 1-5.9.4s.6 4-1 6.3-13 4.7-17.6 7.4S71.3 81 62.5 78s-12.8-5.2-14-11a33.2 33.2 0 0 1-3.2-1.9C43.6 64 43.6 61 43.6 61c-3.5-1-2.4 5-2.4 8.5s3.4 6.2 3.8 6.5.5 2.4 2 3.5 2 3.7 13.8 8.2 25.2 3 25.2 3c.6 1 3.2 3.3 11.3.1s16.9-16.6 17.3-17.3 3-2.4 3-3.7a7.8 7.8 0 0 1 1.2-4.5 13.6 13.6 0 0 0 2-4 4.3 4.3 0 0 0-1.4-2.7c-.8-.6-1.7-1.1-2.3-.8Z"/><path d="M101.6 57.5a4.2 4.2 0 0 1 2.6 1.9c1 1.3 1.4 1.9 1.2 2.3a21.6 21.6 0 0 0-.2 3.6.6.6 0 0 0 .5.6 12.5 12.5 0 0 0 2.8.3 16.9 16.9 0 0 0 4.2-.5.6.6 0 0 0 .5-.7c-.2-.6-.2-2 .3-2.2a4.9 4.9 0 0 1 1.8-.4 1.7 1.7 0 0 1 .3 0l1.4 1a.6.6 0 0 0 .3.2.6.6 0 0 0 .3-.1.6.6 0 0 0 .3-.6 22 22 0 0 1-.4-4.7 2.7 2.7 0 0 1 1.5.8 3.9 3.9 0 0 1 1.2 2.2 13.3 13.3 0 0 1-1.8 3.6 8.6 8.6 0 0 0-1.4 5c0 .5-1.2 1.6-1.9 2.2a6.1 6.1 0 0 0-1 1c-.1.2-8.9 14-17 17.1a19.3 19.3 0 0 1-6.9 1.6c-2.8 0-3.6-1.2-3.7-1.4a.6.6 0 0 0-.5-.3h-.1s-2 .2-5 .2A58.4 58.4 0 0 1 61.1 87c-9.6-3.6-11.6-5.8-12.9-7.2a6.7 6.7 0 0 0-.9-.9 4.6 4.6 0 0 1-1.4-2.3 2.4 2.4 0 0 0-.5-1.1l-.1-.2c-2.3-1.9-3.4-3.9-3.5-5.9v-2c-.2-2.2-.3-4.9.5-5.7a.8.8 0 0 1 .6-.3h.1c0 1 .4 3.2 2 4.2s6 3.7 8.7 3.7a3.8 3.8 0 0 0 .4 0c2.7-.4 2.9-1.6 2.8-2.8 0-.8.3-2.6 1.4-3a1.5 1.5 0 0 1 .4 0c.5 0 .7.4 1 .9l.1.3a2.2 2.2 0 0 0 1 .6 7.1 7.1 0 0 1 2.6 1.7 23.7 23.7 0 0 0 6.6 4.3 5.7 5.7 0 0 0 2.1.5 1.3 1.3 0 0 0 1.5-1l.1-1.4a14 14 0 0 1 .3-2.2l.4-.3.4-.3 1 2a.6.6 0 0 0 .4.4h.1a.7.7 0 0 0 .5-.2 2.2 2.2 0 0 1 1.5-.7 2.4 2.4 0 0 1 .7.1s4.5 1.6 6 1.6h2.5a30.3 30.3 0 0 1 4.5.1 12 12 0 0 0 3 1.1.8.8 0 0 0 .7-.3s.2-.2.3-.4c1-1.8 2-2.8 2.5-3l2-.5a.6.6 0 0 0 .4-.4c.1-.4 1-3.8.3-5.3s-.9-2.7-.1-3.4a.8.8 0 0 1 .5-.2M61.4 74.3a2 2 0 0 0 .3 0 3 3 0 0 0 2.4-2.5c.4-1.6-.2-3.9-3-5.5a2.2 2.2 0 0 0-1.1-.4 2.1 2.1 0 0 0-1.5.6 2.4 2.4 0 0 0-.6 1.7c0 1.6.8 6 3.5 6M101.6 57a1.4 1.4 0 0 0-1 .4c-1 1-.4 2.7 0 4s-.3 5-.3 5l-2 .5c-1.3.4-2.8 3.2-3 3.5a.2.2 0 0 1-.2 0 13.4 13.4 0 0 1-3-1 27.5 27.5 0 0 0-4.7-.2H85a29.4 29.4 0 0 1-5.7-1.5 2.9 2.9 0 0 0-1-.1 2.8 2.8 0 0 0-2 .8 17 17 0 0 0-1.3-2.6c-.3 0-1 .8-1.4 1s-.3 3.1-.5 3.9c0 .4-.3.6-.8.6a5.4 5.4 0 0 1-2-.5 23 23 0 0 1-6.3-4.2c-1.5-1.5-3.4-1.8-3.6-2.2s-.5-1.4-1.7-1.4a2.4 2.4 0 0 0-.5 0c-1.6.5-1.9 2.8-1.8 3.6s0 1.8-2.3 2.1a2.6 2.6 0 0 1-.4 0c-2.4 0-6.8-2.4-8.4-3.5s-1.7-4.3-1.7-4.3a2.5 2.5 0 0 0-.7 0c-2.6 0-1.7 5.3-1.7 8.6 0 3.5 3.4 6.1 3.8 6.5s.5 2.3 2 3.4 2 3.7 13.9 8.2a59.4 59.4 0 0 0 20 3.3c3.1 0 5-.2 5-.2.4.6 1.5 1.7 4.3 1.7a19.8 19.8 0 0 0 7-1.6c8.1-3.2 16.8-16.7 17.3-17.4s3-2.3 3-3.6a7.8 7.8 0 0 1 1.2-4.5 13.6 13.6 0 0 0 2-4 4.3 4.3 0 0 0-1.5-2.7 3.2 3.2 0 0 0-1.8-.9.9.9 0 0 0-.4.1c-.6.3.2 5.2.2 5.2l-1.4-1a1.5 1.5 0 0 0-.6 0 5.2 5.2 0 0 0-2 .4c-1.2.4-.7 2.8-.7 2.8a16.3 16.3 0 0 1-4 .5 12.5 12.5 0 0 1-2.7-.3 23.8 23.8 0 0 1 .2-3.5c.2-.6-.3-1.3-1.4-2.8-.9-1-2-2-3.1-2ZM61.4 73.7c-2.2 0-2.9-4-3-5.5a1.5 1.5 0 0 1 1.6-1.7 1.7 1.7 0 0 1 .9.3c4 2.4 3 6.5.8 6.9h-.3Z" class="cls-4"/><path d="M107.3 65.5a11.5 11.5 0 0 1-1.4-.2 23.8 23.8 0 0 1 .1-3.5c.2-.7-.2-1.3-1.4-2.8s-2.9-2.7-4-1.7-.4 2.7 0 4-.3 5-.3 5l-2 .5c-1.3.4-2.8 3.3-3 3.6s-2.5-.7-3.1-1a42.6 42.6 0 0 0-7.1-.2c-.8 0-4.1-1-5.9-1.6a2.8 2.8 0 0 0-3 .8 17 17 0 0 0-1.3-2.6c-.2 0-1 .7-1.4 1s-.3 3-.4 3.8-1.1.8-2.8.1a23 23 0 0 1-6.4-4.2c-1.4-1.5-3.3-1.8-3.5-2.2s-.6-1.8-2.2-1.4-1.9 2.8-1.8 3.6 0 1.8-2.3 2.1-7.1-2.4-8.8-3.5-1.7-4.2-1.7-4.2a2.2 2.2 0 0 0-.8-.1c-.7 6.4 9 8.2 10 8.6s3.7-1 3.7-1 .8-3.6 2-4 1.5 1.4 2.2 1.4 4.4 2.5 6.6 4.6 6.3 2.2 6.3 2.2l1.3-3.1c.6-1.3 3 .8 3.2.7a3.6 3.6 0 0 1 3 .1c1.4.9 5 0 7.9.2a23.7 23.7 0 0 1 6.4 1.8s1.4-1.5 2.4-3a4.2 4.2 0 0 1 3.3-1.3s1-5.2.6-6.9-.6-4 1.6-2.3 1.3 7.2 1.3 7.2Z" class="cls-16"/><path fill="#b7eae8" stroke="#3c7bd6" stroke-linecap="round" stroke-linejoin="round" stroke-width="1.2" d="M105.3 50.4c-1.5 0-3.8-.4-4 .2s3.8 4.4 4.8 5.2 3.9.2 3.8-1.7a4.4 4.4 0 0 0-4.6-3.7Z"/><path fill="url(#linear-gradient-5)" d="M78.6 12.8h-.3c-1.3-.3-2-1.6-2.6-2.5-.2-.3-.3-.6-.5-.7l-.1-.3a4.2 4.2 0 0 0-2.8-1.9 6.3 6.3 0 0 0-1.3-.1h-1.8l-1.8.1a4.4 4.4 0 0 1-2.2-.4 2 2 0 0 1-1-1.9 2.5 2.5 0 0 1 1-2 9.8 9.8 0 0 1 4.5-1 11.9 11.9 0 0 1 4.2.6 15.6 15.6 0 0 0 3.2.4l3 .3C82 3.8 84 6 85.4 7l.5.5c.8.8 1.5 1.3 1.5 2a1 1 0 0 1-.4.8 1.6 1.6 0 0 1-1.1.3 5 5 0 0 1-2.5-.8 5 5 0 0 0-2.3-.3h-.5a3.6 3.6 0 0 1-.6 2.6 1.7 1.7 0 0 1-1.4.7Z"/><path d="M69.7 2.8a11.1 11.1 0 0 1 3.9.5c.9.5 4.5.5 6.4.8s4.2 2.6 5.2 3.6 2 1.7 1.4 2.2a1 1 0 0 1-.7.2 4.5 4.5 0 0 1-2.2-.7 6.2 6.2 0 0 0-2.6-.3h-1.2c.3 1.3 0 3-1.3 3h-.2c-1.3-.2-2-2.1-2.7-3a5 5 0 0 0-3.3-2.3 6.6 6.6 0 0 0-1.4-.1l-3.6.1a4 4 0 0 1-2-.3c-1.2-.8-.5-2.6 0-2.9a9 9 0 0 1 4.3-.8m0-1.2a10.3 10.3 0 0 0-4.8 1A3 3 0 0 0 63.6 5a2.6 2.6 0 0 0 1.3 2.4 4.9 4.9 0 0 0 2.5.5h1.9l1.7-.2a5.9 5.9 0 0 1 1.2.2 3.6 3.6 0 0 1 2.4 1.7l.2.2.4.7c.6 1 1.5 2.5 3 2.8a2.8 2.8 0 0 0 .4 0 2.3 2.3 0 0 0 1.8-1 3.9 3.9 0 0 0 .8-2.1 6.1 6.1 0 0 1 1.9.1 5.5 5.5 0 0 0 2.8 1 2.3 2.3 0 0 0 1.5-.5 1.6 1.6 0 0 0 .6-1.3c0-1-.8-1.7-1.6-2.5l-.4-.3-.2-.2c-1.2-1.1-3.5-3.3-5.6-3.7a30.3 30.3 0 0 0-3.1-.3 18.6 18.6 0 0 1-3-.4 12.5 12.5 0 0 0-4.4-.6Z" class="cls-5"/><path d="M70.5 3.7c2.6.6 4.3 1.3 6 1.2s10.3 4 9.7 5.2a1 1 0 0 0 .4-.2c.6-.5-.5-1.3-1.4-2.2S81.8 4.4 80 4s-5.5-.3-6.4-.8-5.5-1.1-8.1.3a1.6 1.6 0 0 0-.6.9 9 9 0 0 1 5.6-.8Zm38 49.8c-.2.4-.9.4-1.7 0s-1.2-.8-1-1.2 1-.4 1.7 0 1.2.8 1 1.2Z" class="cls-16"/><path fill="#703c16" d="M88 35.3a10.4 10.4 0 0 0 1.1 2.4 8 8 0 0 0 2.3 2 .6.6 0 0 0 .6-1l-.7-.4-.1-.1-.3-.3a4.8 4.8 0 0 1-.5-.4l-.1-.2s-.2-.2 0 0l-.1-.2a7 7 0 0 1-.6-1l-.2-.2a.5.5 0 0 1 0-.2l-.2-.7a.6.6 0 1 0-1.2.4Zm4.3-.5a12.6 12.6 0 0 0 3.2 2.4.6.6 0 0 0 .8-.3.6.6 0 0 0-.2-.8 6.6 6.6 0 0 1-.9-.5l-.4-.3-.3-.2V35L93 33.9a.6.6 0 1 0-.8.8Zm19.1 7.8a12.5 12.5 0 0 1 5 9.5c0 .8 1.1.8 1.1 0a13.8 13.8 0 0 0-5.5-10.6c-.6-.4-1.2.6-.6 1ZM111 49l.5.4.1.2a1.5 1.5 0 0 0 .1.1c.1.1 0 0 0 0a3.9 3.9 0 0 1 .3.5l.2.2s0 .1 0 0v.2a4.1 4.1 0 0 1 .2.5v.3s0-.1 0 0v.1a4.9 4.9 0 0 1 0 .6 2.6 2.6 0 0 1 0 .3c0-.1 0 0 0 0v.2a.6.6 0 0 0 1.1.3 4.8 4.8 0 0 0-1.7-4.8.6.6 0 0 0-.8 0 .6.6 0 0 0 0 .8ZM95.8 33.8l1 .9a.6.6 0 0 0 .8 0 .6.6 0 0 0 .2-.4.6.6 0 0 0-.2-.5l-1-.8a.6.6 0 0 0-1 .4.6.6 0 0 0 .2.4ZM80.2 50.5c0 3 2.8 4.6 5.3 5.4a.6.6 0 0 0 .7-.4.6.6 0 0 0-.4-.8 9.8 9.8 0 0 1-1.6-.6 7.6 7.6 0 0 1-1.4-.9 4 4 0 0 1-1-1.2 2.8 2.8 0 0 1-.4-1.5c0-.8-1.1-.8-1.2 0Z"/><path fill="#f7d33c" d="M71.7 36.2c-5.5 0-10-5-10.3-11.2s4.1-11.8 9.8-12h.3c5.5 0 10 5 10.3 11.2S77.6 36 72 36.2Z"/><path d="M71.5 13.6c5.2 0 9.4 4.7 9.7 10.7s-4 11.1-9.2 11.3h-.3c-5.2 0-9.5-4.7-9.7-10.7s3.9-11.1 9.2-11.3h.3m0-1.2h-.4c-6 .2-10.5 5.9-10.3 12.6s5 11.8 10.9 11.8h.3a10.2 10.2 0 0 0 7.6-4 13 13 0 0 0 2.8-8.6c-.3-6.6-5-11.8-10.9-11.8Z" class="cls-2"/><path fill="#ed9935" d="M71.2 13.6c-5.3.2-9.4 5.3-9.2 11.4a12 12 0 0 0 2.6 7s1.8-5.7 7.6-6.2c5.3-.3 6.6 4.3 6.8 5.8a12 12 0 0 0 2.2-7.4c-.2-6-4.7-10.8-10-10.6Z"/><path d="M78.5 24.4c.1 4-2.6 7.5-6.2 7.7s-6.7-3.1-6.8-7.3 2.6-7.6 6.2-7.7 6.6 3.1 6.8 7.3Z" class="cls-2"/><path d="M65.3 16.8c-2 2-2.3 4.8-.8 6.3s4.5 1.3 6.4-.6 2.3-4.8.8-6.3-4.4-1.3-6.4.6ZM78 30c0 .4-.6.7-1.4.7s-1.5-.2-1.5-.6.6-.7 1.5-.7 1.5.2 1.5.6Z" class="cls-16"/><path fill="#c4964d" d="M62.2 14s6 6 19.3 4.8c0 0 2.7-.2 1.7-3.3s-18-6.4-21-1.6Z"/><path fill="none" stroke="#4c1a09" stroke-linecap="round" stroke-linejoin="round" stroke-width="1.2" d="M62.2 14s6 6 19.3 4.8"/><path fill="#84e7ff" stroke="#3390ff" stroke-linecap="round" stroke-linejoin="round" stroke-width="1.2" d="M77 35s6-5.3 11-4.5 5.2 7.1 1.5 8.5c-4.8 1.8-12.4-4-12.4-4Z"/><path d="M87 35.2c1.3 0 2.4-.6 2.4-1.4s-1-1.5-2.3-1.6-2.4.6-2.4 1.4 1 1.5 2.3 1.6Z" class="cls-16"/></g></g></svg>