<svg xmlns="http://www.w3.org/2000/svg" xmlns:xlink="http://www.w3.org/1999/xlink" viewBox="0 0 117.8 104.7"><defs><linearGradient id="linear-gradient" x1="76.6" x2="76.6" y1="94.2" y2="60.6" gradientUnits="userSpaceOnUse"><stop offset="0" stop-color="#dbffff"/><stop offset="1" stop-color="#339ed3"/></linearGradient><linearGradient xlink:href="#linear-gradient" id="linear-gradient-2" x1="73.6" x2="73.6" y1="2.6" y2="12.1"/><linearGradient id="linear-gradient-3" x1="25.9" x2="25.9" y1="58.6" y2="37.6" gradientTransform="rotate(8.9 25.7 67.7)" gradientUnits="userSpaceOnUse"><stop offset="0" stop-color="#dbffff"/><stop offset="1" stop-color="#1376a6"/></linearGradient><linearGradient xlink:href="#linear-gradient-3" id="linear-gradient-4" x1="13.3" x2="13.3" y1="52" y2="31" gradientTransform="rotate(15.2 -2.7 54.7)"/><linearGradient xlink:href="#linear-gradient-3" id="linear-gradient-5" x1="-.8" x2="-.8" y1="49.1" y2="27.9" gradientTransform="rotate(15.2 -8 52.2)"/><style>.cls-1{fill:#755b46}.cls-2{fill:#4c1a09}.cls-3{fill:none;stroke:#4c1a09;stroke-width:.6px;stroke-linecap:round;stroke-linejoin:round}.cls-4{fill:#b7eae8}.cls-5{fill:#3c7bd6}.cls-7{fill:#5b2307}.cls-15{fill:#fff}</style></defs><g id="Layer_2" data-name="Layer 2"><g id="Layer_1-2" data-name="Layer 1"><path d="M51.5 100a1 1 0 0 1-1-.8c-.2-.9.6-2.2 1.6-3.5l-3.6 1.8-4.2 2a2.7 2.7 0 0 1-1 .1 1.8 1.8 0 0 1-1.7-1 2 2 0 0 1 .7-2.3 31.1 31.1 0 0 1 4-2.5c-2.8 0-4-.5-4.2-1.4s1.2-1.7 2.5-2a82 82 0 0 1 8.4-1.2 36.3 36.3 0 0 1 3.9-.2c5 0 5.4 1.1 5.6 1.5.3 1.2-1.5 2.5-3.5 4a36.3 36.3 0 0 0-3 2.5c-2.2 1.8-3.6 3-4.5 3Z" class="cls-1"/><path d="M56.9 89.6c2.6 0 4.8.3 5 1 .3 1.2-3.1 3.2-5 4.6-1.5 1.2-4.4 4.1-5.4 4.1a.3.3 0 0 1-.4-.2c-.3-1.4 3.5-5 3.5-5-2.5 1-8.8 4.1-10.5 4.8a2 2 0 0 1-.8.2c-1.2 0-1.7-1.3-.6-2.3 1.3-1.1 8.5-5 8.4-5l-3.9 1.4h-.8c-5.5 0-3.9-1.7-1.7-2.2a82 82 0 0 1 8.4-1.2 35.5 35.5 0 0 1 3.8-.2m0-1.2a37.7 37.7 0 0 0-4 .2 80.5 80.5 0 0 0-8.5 1.2c-2 .5-3 1.5-3 2.7s1.3 1.6 2.8 1.8a18 18 0 0 0-2.4 1.6 2.6 2.6 0 0 0-.8 2.8 2.4 2.4 0 0 0 2.3 1.5 3 3 0 0 0 1.2-.2c.8-.3 2.4-1 4.2-2l1.7-.8a3 3 0 0 0-.4 2.1 1.6 1.6 0 0 0 1.5 1.2c1.1 0 2.4-1 4.9-3.1l1.4-1.3 1.6-1.1c2.3-1.7 4.2-3 3.7-4.7-.3-1-1.3-2-6.2-2Z" class="cls-2"/><path d="M44.5 94.9a3 3 0 0 1 2 3.3m1.7-5.1s3.2-.5 3 2.7m-5.3-5.6s1.6 1 .8 3.3m5.9 1.9a2.5 2.5 0 0 1 3 1.8M50 89.6c0 .2 1.6.1 1.8 1.9 0 0 2.8-.7 3.4 1.8 0 0 2.8-.8 3.3 1.4" class="cls-3"/><path d="M74.1 104a1.3 1.3 0 0 1-1.3-.9c-.6-1.8 2.4-4.5 4.9-6.3l-2 .4a29.2 29.2 0 0 1-4 .6c-.2 0-.9 0-1-.6s.4-1 1.1-1.4c3.4-2 11.2-3.5 12-3.7s7.6-3 10.5-3a1.7 1.7 0 0 1 1.5.7 1.3 1.3 0 0 1 0 1.3c-1.3 2.9-6.6 11.3-9.5 11.3a1.8 1.8 0 0 1-.4 0 1.4 1.4 0 0 1-1.1-1c-.3-1 .2-2.2.8-3.3l-1 .7A30.5 30.5 0 0 1 74 104Z" class="cls-1"/><path d="M94.1 89.7c1 0 1.4.3 1 1.1-1.4 3.2-6.5 11-8.9 11a1 1 0 0 1-.2 0c-2.3-.6 1.5-5.4 1.5-5.4-2 .9-10.7 7.1-13.4 7.1-.4 0-.7-.1-.8-.5-.7-2.5 7.4-7.5 7.4-7.5l-2.2.6c-1.6.2-5.6 1.1-6.9 1.1-.7 0-.7-.2.4-.8 3.4-2 11.8-3.6 11.8-3.6s7.4-3 10.3-3m0-1.3c-3 0-9.4 2.6-10.6 3-1 .3-8.8 1.8-12.1 3.8-.6.3-1.7 1-1.4 2 0 .5.4 1 1.6 1a25.6 25.6 0 0 0 3.7-.5c-2 1.8-3.6 3.8-3.2 5.5a1.9 1.9 0 0 0 2 1.3c2 0 5.6-2 10.2-5a3.2 3.2 0 0 0-.1 1.9 2 2 0 0 0 1.5 1.4 2.1 2.1 0 0 0 .6 0c3.6 0 9-9.6 10-11.7a2 2 0 0 0-.1-1.9 2.3 2.3 0 0 0-2.1-.9Z" class="cls-2"/><path d="M74 100.2s3.4-.6 4 2.5m-1-5.5s5.8-1.4 6.2 2.4m-8.8-5a2.1 2.1 0 0 1 .5 2.6M85.1 99s3-2.3 5.5-.3m-10.5-5.1a1.5 1.5 0 0 1 1.9 1s4.3-1.3 6.2.7c0 0 3.8-2.5 5.6-.7" class="cls-3"/><path d="M58.6 92.5a11.2 11.2 0 0 1-4-.7c-6.4-2.5-6.7-9.4-6.7-9.5a.6.6 0 0 1 .5-.6 14.7 14.7 0 0 1 2.3-.2 32 32 0 0 1 17 7 .6.6 0 0 1 0 1 17.3 17.3 0 0 1-9 3Z" class="cls-4"/><path d="M50.7 82c8.1 0 16.7 7 16.7 7a16.9 16.9 0 0 1-8.8 2.9 10.4 10.4 0 0 1-3.7-.7c-6.2-2.4-6.4-9-6.4-9a12.8 12.8 0 0 1 2.2-.1m0-1.2a14 14 0 0 0-2.4.2 1.2 1.2 0 0 0-1 1.2c0 .3.3 7.4 7.2 10a11.7 11.7 0 0 0 4.1.8 18.1 18.1 0 0 0 9.5-3.2 1.3 1.3 0 0 0 .5-1 1.2 1.2 0 0 0-.4-1c-.4-.3-9-7-17.5-7Z" class="cls-5"/><path fill="#a36731" d="M76 90.4a41 41 0 0 1-3.7-.2c-23.9-2.2-34-15-34.8-23.2a27.3 27.3 0 0 1 .7-9.8 3.1 3.1 0 0 1-1.8.8 1.1 1.1 0 0 1-.8-.4 2.7 2.7 0 0 1-.4-2c.1-2.3 1.5-4.6 2.8-6.2a4.8 4.8 0 0 1-2 .8 1 1 0 0 1-.8-.3 1.7 1.7 0 0 1-.4-1.3c.1-2.1 2.8-4.2 4-5a40.7 40.7 0 0 1-1-17.2 28.8 28.8 0 0 1 10.6-17c-1.2-.2-2.3-.8-2.4-1.6-.1-.6.1-1.4 1.7-2a13.8 13.8 0 0 1 3.5-.8c-.9-.4-1.6-.8-1.7-1.4 0-.4 0-.9.8-1.4a4.3 4.3 0 0 1 2.3-.5 13.8 13.8 0 0 1 4.7 1 2 2 0 0 1-.3-1.4 1 1 0 0 1 .8-.7h.2c1.4 0 3.3 1.9 4 2.6h1.2C82.2 3.2 90.4 15 94 25c2.3 6.3 7 9.3 12.6 12.7a29 29 0 0 1 9.8 10.4.8.8 0 0 1 0 .8.8.8 0 0 1-.8.3h-.1a19.4 19.4 0 0 1 1.7 7.2.8.8 0 0 1-.8.8 1.3 1.3 0 0 1-.4 0c1 3 .6 7.1-.2 8a43.2 43.2 0 0 0-3.7 6.3c-.1 1-14.6 19-36.1 19Z"/><path d="M58 1.2c1.4 0 3.8 2.6 3.8 2.6h1.4c21 0 28 15 30.2 21.4s7.1 9.4 12.8 13a28.4 28.4 0 0 1 9.6 10.1c.1.3 0 .4-.2.4a5.7 5.7 0 0 1-1.6-.6c2.1 2.4 2.5 7.5 2.5 8.3 0 0 0 .2-.2.2a5 5 0 0 1-1.6-.9c1.7 3 1.3 8.3.6 9a40.9 40.9 0 0 0-3.8 6.7 48.2 48.2 0 0 1-39.1 18.3C49 87.4 39 75 38 66.9a26.3 26.3 0 0 1 2.3-14 10.3 10.3 0 0 0-2.1 3.3s-1.1 1.2-1.8 1.2c-.5 0-.9-.5-.7-1.9.3-3.6 4.3-7.7 4.3-7.7-1.7.4-3.4 1.8-4.2 1.8-.4 0-.6-.2-.5-.9 0-2.3 4-4.7 4-4.7s-2.5-6.9-1-17.4S50 9 50 9c-3-.1-4.7-1.5-2-2.6a21.2 21.2 0 0 1 6.8-1h1s-7.7-1-5-2.6a3.7 3.7 0 0 1 1.9-.5c2.8 0 6.5 2 6.5 2s-2.5-2.8-1.2-3M58 0h-.3a1.6 1.6 0 0 0-1.3 1 1.4 1.4 0 0 0-.1.7 12.7 12.7 0 0 0-3.7-.7 4.9 4.9 0 0 0-2.6.7 1.9 1.9 0 0 0-1 2 1.6 1.6 0 0 0 .4 1 10.8 10.8 0 0 0-2 .5c-2 .8-2.2 2-2 2.6A2.5 2.5 0 0 0 47 9.6a29.3 29.3 0 0 0-10 16.8 42.1 42.1 0 0 0 .9 17c-1.4 1-3.7 3-3.8 5.3a2.3 2.3 0 0 0 .5 1.6 1.7 1.7 0 0 0 1.2.6 2.7 2.7 0 0 0 .4 0 11 11 0 0 0-1.7 4.6A3.2 3.2 0 0 0 35 58a1.8 1.8 0 0 0 1.4.6 2.4 2.4 0 0 0 .8-.2 27.7 27.7 0 0 0-.4 8.7c1 8.3 11.1 21.5 35.4 23.8l3.7.1c11.4 0 20.6-5 26.4-9.3a38 38 0 0 0 10.3-10.2.2.2 0 0 1 0 .1 47 47 0 0 1 3.5-6c1-1 1.4-4.7.6-8a1.4 1.4 0 0 0 1-1.3 21.7 21.7 0 0 0-1.4-6.7 1.4 1.4 0 0 0 .5-.4 1.4 1.4 0 0 0 .1-1.4 29.8 29.8 0 0 0-10-10.7c-5.5-3.4-10.2-6.3-12.4-12.4-3.7-10-12-22.1-31.3-22.1h-1c-1-1-2.8-2.6-4.3-2.6Z" class="cls-7"/><path fill="#8e5424" d="M111.5 71.3a40.9 40.9 0 0 1 3.8-6.6c.7-.7 1.1-6-.6-9 0 0 1.8 1.3 1.8.6s-.4-5.8-2.5-8.2c0 0 2.1 1 1.8.2a28.4 28.4 0 0 0-9.5-10.2 50.6 50.6 0 0 1-7.9-5.5s8 8.4 7.6 16.4-4.1 5-4.1 5l-6.6-3.5s2.2 6-1.3 8-4.5 0-4.5 0 1.2 3.8-3.3 4.8-16.4 1-21.7 0-12.1-3.2-12.8-7-1.4-4.4-1.4-4.4-5 6.9-5.7 3.5a11.9 11.9 0 0 1 .4-5.9s-4.3 2.7-3.8 1a22.3 22.3 0 0 1 1.4-4 13 13 0 0 1-3.4-2.4c-.8.6-3.7 2.6-3.8 4.6-.1 2.3 2.3-.3 4.7-.9 0 0-4 4.1-4.3 7.7s2.5.8 2.5.8a10.3 10.3 0 0 1 2.1-3.5A26.3 26.3 0 0 0 38.1 67c1 8 11 20.5 34.3 22.8s39-17.8 39.1-18.4Z"/><path fill="#bd852d" d="M100.5 68c-10.8-1.5-31.2-9.4-28.7-19.7s10.5-7.3 13.5-20S75 8.1 64.9 9.3s-15.2 11.3-15.6 12-5.3.8-7.2.4S41 19 41 19a21.9 21.9 0 0 0-2.6 7.6c-1.6 10.5 1 17.4 1 17.4s-4 2.4-4 4.7 2.3-.3 4.7-.9c0 0-4 4.1-4.4 7.7s2.6.8 2.6.8a10.3 10.3 0 0 1 2-3.5A26.3 26.3 0 0 0 38.2 67c.9 8 11 20.5 34.3 22.8 19.4 1.7 33.5-12 37.8-16.8-2-2.6-5.3-4.5-9.8-5Z"/><path fill="#91682c" d="M75 89.8h4l1.3-.2h.6l1.6-.3a1.1 1.1 0 0 0 .2 0l1.8-.4.5-.1 1.2-.3.6-.2L88 88l.6-.2 1.1-.4.5-.2 1.4-.5.2-.1 1.5-.7.3-.1 1.2-.6.5-.3 1-.5.4-.3 1-.5.4-.3 1-.7h.3l1.3-1h.1l1-.8.4-.2.7-.6.4-.3.7-.6.3-.3.7-.6.3-.2.9-.8.2-.2.6-.5.4-.4.4-.4.3-.3.4-.4.3-.3.3-.3.3-.4 1-1a15 15 0 0 0-9.9-5 58.7 58.7 0 0 1-15.2-4.5 81 81 0 0 1-20.7-.1c-5.3-1-12.2-3.3-12.8-7s-1.4-4.5-1.4-4.5-5.1 7-5.7 3.6a11.9 11.9 0 0 1 .3-5.9s-4.3 2.7-3.8 1a22.3 22.3 0 0 1 1.4-4 13 13 0 0 1-3.4-2.4l-.2.1-.3.2-.2.2-.3.2v.1l-.3.2h-.1l-.3.3-.4.4a7.8 7.8 0 0 0-.7.8l-.2.3-.1.2-.2.2a.6.6 0 0 1 0 .2l-.2.2a.8.8 0 0 0 0 .2l-.2.3a3.1 3.1 0 0 0 0 .5c-.1 2.3 2.3-.3 4.7-1 0 0-4 4.2-4.3 7.8s2.5.7 2.5.7a10.3 10.3 0 0 1 2.1-3.4A26.3 26.3 0 0 0 38.2 67c.9 8 11 20.5 34.3 22.7l2 .2Z"/><path fill="none" stroke="#5b2307" stroke-linecap="round" stroke-linejoin="round" stroke-width="1.2" d="M57.3 32.9a4.6 4.6 0 0 0-1.2-3.3"/><path fill="#f7d33c" d="M69.4 35.7c-5.6 0-10.2-5.2-10.2-11.7s4.6-11.6 10.2-11.6 10.2 5.3 10.2 11.7S75 35.7 69.4 35.7Z"/><path d="M69.4 13c5.3 0 9.6 5 9.6 11s-4.3 11-9.6 11-9.6-4.9-9.6-11 4.3-11 9.6-11m0-1.2c-6 0-10.8 5.5-10.8 12.3s4.9 12.2 10.8 12.2S80.2 30.8 80.2 24s-4.8-12.3-10.8-12.3Z" class="cls-7"/><path fill="#ed9935" d="M69.4 13c-5.3 0-9.6 5-9.6 11a12 12 0 0 0 2.3 7.1s2-5.6 7.9-5.8c5.3-.2 6.4 4.5 6.6 6A11.9 11.9 0 0 0 79 24c0-6-4.3-11-9.6-11Z"/><path d="M76.3 24c0 4.2-3 7.5-6.5 7.5s-6.5-3.3-6.5-7.5 2.9-7.4 6.5-7.4 6.5 3.3 6.5 7.4Z" class="cls-2"/><path fill="#c4964d" stroke="#5b2307" stroke-linecap="round" stroke-linejoin="round" stroke-width="1.2" d="M66.6 37.5s1.3-3.4 6-4.2 6 1.3 6 1.3"/><path d="M63.4 16c-2 1.9-2.5 4.7-1 6.3s4.4 1.5 6.4-.4 2.5-4.7 1-6.3-4.3-1.4-6.4.4Zm12.3 13.7c0 .4-.7.7-1.5.7s-1.5-.3-1.5-.7.7-.7 1.5-.7 1.5.3 1.5.7Z" class="cls-15"/><path d="M85.3 94c-3.1 0-4.4-1.2-5-1.9h-2.2c-4.8 0-14-.4-22.6-4-9.7-4-11.8-6.6-13-8a7 7 0 0 0-.8-.8 5.7 5.7 0 0 1-1.7-3 4.1 4.1 0 0 0-.1-.6h-.1c-2.5-2.3-3.7-4.7-3.6-7v-2c0-2.7-.1-5.4 1-6.7a2 2 0 0 1 1.6-.6 3.1 3.1 0 0 1 .9.2.6.6 0 0 1 .4.6c0 .8.1 3 1.3 3.8 1.6 1.1 5.9 3.7 8 3.7h.2c1.8-.2 1.8-.7 1.8-1.4 0-1 .4-3.6 2.4-4a2.8 2.8 0 0 1 .6-.2 2.3 2.3 0 0 1 2 1.7 1.8 1.8 0 0 0 .2.1 4 4 0 0 1 .4.2 8.5 8.5 0 0 1 3 2 22.2 22.2 0 0 0 6 4.3 4.5 4.5 0 0 0 1.7.5.4.4 0 0 0 .2 0 10.4 10.4 0 0 0 .1-1.2c.2-2.1.3-2.7.8-3a4.3 4.3 0 0 0 .4-.3c.6-.5 1-.7 1.3-.7a1 1 0 0 1 .2 0c.2 0 .4.1 1.4 2.3a3.3 3.3 0 0 1 2.9-.3 27.8 27.8 0 0 0 5.5 1.7h.6c1 0 6 .2 6.8.6a17.1 17.1 0 0 0 2.4 1v-.1c1-1.5 2.3-3 3.5-3.4l1.6-.3c.3-1.4.7-3.4.4-4.2-.5-1.5-1.1-3.5.3-4.8a2 2 0 0 1 1.3-.4c1.3 0 2.7 1.2 3.6 2.4 1 1.6 1.6 2.5 1.3 3.4a19 19 0 0 0-.2 2.9 14.1 14.1 0 0 0 2.6.2 16.5 16.5 0 0 0 2.8-.3c0-.8 0-2.4 1.3-2.8a6.2 6.2 0 0 1 2-.4 2.1 2.1 0 0 1 1.2.2l.2.2c-.3-4 .2-4.2.5-4.4a1.4 1.4 0 0 1 .7-.1 3.5 3.5 0 0 1 2.2 1.1c.7.7 1.7 2.4 1.5 3.4a14.2 14.2 0 0 1-2.2 4 7.3 7.3 0 0 0-1.3 4.2c0 1.1-1.3 2.2-2.4 3a7.3 7.3 0 0 0-.9.8c0 .2-9.6 14-18.2 17a21.4 21.4 0 0 1-6.8 1.4ZM55.5 67c-.4 0-.9.4-.9 1.1 0 1.5.6 5 2.2 5h.1a1.8 1.8 0 0 0 1.5-1.4c.3-1.2-.2-3-2.3-4.4a1 1 0 0 0-.6-.3Z" class="cls-4"/><path d="M97.4 58.4c1 0 2.3 1 3.1 2.3 1 1.4 1.5 2.1 1.3 2.8a23.2 23.2 0 0 0-.3 3.5 12.8 12.8 0 0 0 3.2.4 16.1 16.1 0 0 0 3.5-.4s-.4-2.4.8-2.8a5.7 5.7 0 0 1 1.9-.4 1.6 1.6 0 0 1 .8.2l1.3 1s-.6-4.9 0-5.2a.9.9 0 0 1 .4 0 3.1 3.1 0 0 1 1.8 1 4.2 4.2 0 0 1 1.3 2.7 13.4 13.4 0 0 1-2 3.8 7.9 7.9 0 0 0-1.5 4.5c0 1.3-2.7 2.9-3.2 3.6S100.2 89.2 92 92a20.8 20.8 0 0 1-6.7 1.4c-3 0-4.3-1.3-4.6-2l-2.6.1c-4.4 0-13.8-.4-22.4-4C44 82.6 43.5 80 42.1 78.8s-1.4-3.1-1.8-3.5-3.6-3.1-3.6-6.7c.1-3.2-.6-8.5 2-8.5a2.8 2.8 0 0 1 .8 0s-.2 3.2 1.5 4.4 6 3.9 8.4 3.9h.3C52 68 52 67 52 66.4s.4-3.1 2-3.5a1.8 1.8 0 0 1 .5 0c1.2 0 1.4 1.1 1.6 1.4s2.1.8 3.5 2.4a23.2 23.2 0 0 0 6.2 4.4 5.1 5.1 0 0 0 2 .6c.5 0 .7-.2.8-.6.2-.7.2-3.6.6-3.8s1.1-1 1.4-1a16.4 16.4 0 0 1 1.2 2.7 2.8 2.8 0 0 1 2-.8 2.8 2.8 0 0 1 1 .2 28.2 28.2 0 0 0 5.7 1.7h.6a41.2 41.2 0 0 1 6.6.5 12.6 12.6 0 0 0 2.8 1.1.2.2 0 0 0 .2 0c.2-.2 1.9-3 3.2-3.4s2-.4 2-.4 1-3.6.5-5-1-3 .2-4a1.4 1.4 0 0 1 .9-.4M56.8 73.7h.2c2.3-.3 3.4-4.3-.5-7a1.7 1.7 0 0 0-1-.2A1.5 1.5 0 0 0 54 68c0 1.5.6 5.6 2.8 5.6m40.6-16.5a2.5 2.5 0 0 0-1.6.6c-1.8 1.5-1 4-.5 5.4a9.8 9.8 0 0 1-.4 3.5l-1.2.3c-1.4.3-2.5 1.7-3.6 3.3a22 22 0 0 1-1.9-.9c-1-.5-7-.6-7-.6a5.6 5.6 0 0 0-.7 0 30.1 30.1 0 0 1-5.3-1.6 4 4 0 0 0-1.4-.3 3.8 3.8 0 0 0-1.4.3c-.8-1.9-1-2-1.5-2a1.5 1.5 0 0 0-.4-.1 2.9 2.9 0 0 0-1.6.8 4.5 4.5 0 0 1-.4.3c-.8.4-.9 1.3-1 3.5v.7a6.6 6.6 0 0 1-1.3-.4 21.6 21.6 0 0 1-5.8-4.1 8.8 8.8 0 0 0-3-2.2l-.4-.2a2.8 2.8 0 0 0-2.6-2 3.4 3.4 0 0 0-.7.2c-2.3.5-3 3.2-3 4.6 0 .6 0 .7-1.2.8h-.2c-1.7 0-5.5-2-7.6-3.6-1-.7-1-2.6-1-3.3a1.2 1.2 0 0 0-.9-1.2 3.7 3.7 0 0 0-1-.2 2.6 2.6 0 0 0-2 .8c-1.4 1.4-1.3 4.3-1.3 7v2c0 2.5 1.2 5 3.8 7.4l.1.4a6.3 6.3 0 0 0 1.9 3.3 6 6 0 0 1 .6.7c1.3 1.5 3.5 4 13.3 8.2A62 62 0 0 0 78 92.6h2c.8.8 2.3 1.9 5.3 1.9a22 22 0 0 0 7-1.5c8.8-3 18.4-17 18.5-17.1l.8-.7c1.2-.9 2.6-2 2.6-3.5a6.7 6.7 0 0 1 1.1-3.8 14.2 14.2 0 0 0 2.4-4.3c.2-1.3-.8-3.1-1.7-3.9a4 4 0 0 0-2.6-1.3 2 2 0 0 0-1 .2c-.5.3-1 .6-.9 4a4.3 4.3 0 0 0-.6 0 6.8 6.8 0 0 0-2.3.4 3 3 0 0 0-1.7 2.9 16.1 16.1 0 0 1-2.2.2 13 13 0 0 1-2-.2 13.3 13.3 0 0 1 .2-2.1c.5-1.3-.3-2.3-1.4-4-.4-.6-2-2.7-4-2.7ZM56.8 72.5c-.8 0-1.6-2.5-1.6-4.4 0-.2 0-.4.3-.4a.4.4 0 0 1 .3 0c1.8 1.3 2.2 2.8 2 3.8a1.3 1.3 0 0 1-1 1Z" class="cls-5"/><path fill="url(#linear-gradient)" d="M113 59.8c-.6.3 0 5.3 0 5.3l-1.4-1.1a4.3 4.3 0 0 0-2.6.2c-1.2.4-.8 2.8-.8 2.8a15.7 15.7 0 0 1-5.9.2s.5 4-1.2 6.2-13.2 4.2-17.9 6.8-16.9 1-25.5-2.1S45 72.4 44.2 66.5a29.9 29.9 0 0 1-3.2-2c-1.7-1.2-1.5-4.3-1.5-4.3-3.5-1-2.7 4.9-2.8 8.4s3.2 6.3 3.6 6.7.4 2.3 1.8 3.5 1.8 3.8 13.6 8.7 25 4 25 4c.5 1 3 3.4 11.3.5s17.4-16 17.9-16.6 3.1-2.3 3.1-3.6a7.9 7.9 0 0 1 1.4-4.5 13.4 13.4 0 0 0 2.1-3.8 4.2 4.2 0 0 0-1.3-2.8c-.7-.7-1.6-1.2-2.2-.9Z"/><path d="M97.4 59a4.1 4.1 0 0 1 2.6 2c1 1.4 1.3 2 1.2 2.3a21.6 21.6 0 0 0-.3 3.7.6.6 0 0 0 .4.6 13 13 0 0 0 3.4.4 16.6 16.6 0 0 0 3.6-.4.6.6 0 0 0 .5-.7c-.1-.6-.1-2 .4-2.1a4.7 4.7 0 0 1 1.7-.3 2.5 2.5 0 0 1 .5 0l1.2 1a.6.6 0 0 0 .4.1.6.6 0 0 0 .3 0 .6.6 0 0 0 .3-.7 22.4 22.4 0 0 1-.2-4.6c.2 0 .6 0 1.4.8a4 4 0 0 1 1.2 2.3 13.4 13.4 0 0 1-2 3.6 8.4 8.4 0 0 0-1.5 4.8c0 .6-1.3 1.6-2 2.2a6.3 6.3 0 0 0-1 1c-.2.1-9.4 13.5-17.7 16.4a20.4 20.4 0 0 1-6.4 1.3c-3.1 0-4-1.3-4.1-1.5a.6.6 0 0 0-.6-.4s-1 .1-2.5.1c-4.7 0-13.8-.5-22.2-4-9.4-3.9-11.4-6.3-12.5-7.7a7.6 7.6 0 0 0-.9-.9 4.6 4.6 0 0 1-1.3-2.4 2.5 2.5 0 0 0-.5-1l-.1-.2c-2.2-2-3.3-4-3.2-6v-2c0-2.2-.1-4.9.7-5.7a.8.8 0 0 1 .6-.3h.2c0 1 .3 3.2 1.7 4.3s6.1 4 8.8 4h.3c2.7-.3 3-1.5 3-2.6 0-.8.3-2.7 1.4-3a1.6 1.6 0 0 1 .4 0c.4 0 .7.4 1 1a3.4 3.4 0 0 0 .1.3 2.2 2.2 0 0 0 1 .7 7 7 0 0 1 2.4 1.6 23.6 23.6 0 0 0 6.4 4.6 5.6 5.6 0 0 0 2.2.6 1.3 1.3 0 0 0 1.4-1l.1-1.3a15.2 15.2 0 0 1 .3-2.2l.5-.3.3-.3 1 2.1a.6.6 0 0 0 .4.4h.1a.6.6 0 0 0 .5-.2 2.3 2.3 0 0 1 1.5-.6 2.3 2.3 0 0 1 .8.1s4.5 1.8 5.9 1.8h.6a47.8 47.8 0 0 1 6.3.4 11 11 0 0 0 3.2 1.2.8.8 0 0 0 .6-.2l.2-.4c1.2-1.8 2-2.7 2.7-2.9l2-.4a.6.6 0 0 0 .4-.4c.1-.4 1-3.8.5-5.3s-.8-2.8 0-3.4a.8.8 0 0 1 .5-.2M56.8 74.3h.2a3 3 0 0 0 2.5-2.4c.4-1.6 0-3.9-2.7-5.6a2.3 2.3 0 0 0-1.3-.4 2.1 2.1 0 0 0-2 2.2c0 1.7.5 6.2 3.3 6.2m40.6-15.9a1.4 1.4 0 0 0-.9.4c-1.1 1-.5 2.7 0 4s-.6 5-.6 5l-2 .4c-1.4.4-3 3.2-3.3 3.4a12.6 12.6 0 0 1-3-1.1 41.2 41.2 0 0 0-6.5-.5h-.6a28.2 28.2 0 0 1-5.8-1.7 2.8 2.8 0 0 0-1-.2 2.8 2.8 0 0 0-1.9.8 16.4 16.4 0 0 0-1.3-2.7c-.3 0-1 .7-1.4 1s-.4 3-.6 3.8c0 .4-.4.6-.8.6a5.1 5.1 0 0 1-2-.6 23.2 23.2 0 0 1-6.2-4.5c-1.4-1.5-3.3-2-3.5-2.3s-.4-1.5-1.6-1.5a1.8 1.8 0 0 0-.5 0c-1.6.4-2 2.7-2 3.5s0 1.9-2.3 2h-.3c-2.4 0-6.8-2.7-8.4-3.8S39.4 60 39.4 60a2.8 2.8 0 0 0-.8-.1c-2.6 0-1.9 5.3-2 8.5 0 3.6 3.2 6.3 3.6 6.7s.4 2.3 1.8 3.5 1.8 3.8 13.6 8.7c8.6 3.6 18 4 22.4 4h2.5c.4.6 1.6 1.9 4.7 1.9A20.8 20.8 0 0 0 92 92c8.2-2.9 17.4-16 17.9-16.7s3.1-2.2 3.1-3.5a7.9 7.9 0 0 1 1.4-4.5 13.4 13.4 0 0 0 2.1-3.8 4.2 4.2 0 0 0-1.3-2.8 3.1 3.1 0 0 0-1.8-1 .9.9 0 0 0-.4.1c-.6.3 0 5.2 0 5.2l-1.4-1a1.6 1.6 0 0 0-.7-.2 5.7 5.7 0 0 0-1.9.4c-1.2.4-.8 2.8-.8 2.8a16.1 16.1 0 0 1-3.5.3 12.8 12.8 0 0 1-3.2-.3 23.2 23.2 0 0 1 .3-3.5c.2-.7-.3-1.4-1.3-2.9-.8-1.1-2-2.2-3-2.2ZM56.8 73.7c-2.2 0-2.8-4.1-2.8-5.6a1.5 1.5 0 0 1 1.5-1.6 1.7 1.7 0 0 1 1 .2c3.9 2.7 2.8 6.7.5 7Z" class="cls-4"/><path d="M102.9 67.2a9.7 9.7 0 0 1-1.4-.2 23.2 23.2 0 0 1 .3-3.5c.2-.7-.3-1.4-1.3-2.9s-2.8-2.8-4-1.8-.6 2.7-.1 4-.6 5-.6 5l-2 .4c-1.4.4-3 3.2-3.2 3.4s-2.4-.8-3-1a42.8 42.8 0 0 0-7-.5c-1 0-4.2-1-5.9-1.8a2.8 2.8 0 0 0-3 .7 16.4 16.4 0 0 0-1.2-2.7c-.2 0-1 .7-1.5 1s-.4 3-.6 3.8-1 .7-2.7 0a23.2 23.2 0 0 1-6.2-4.5c-1.4-1.6-3.3-2-3.5-2.3s-.5-1.8-2.1-1.5-2 2.7-2 3.5 0 1.8-2.4 2-7-2.6-8.6-3.8-1.5-4.3-1.5-4.3a3 3 0 0 0-.8-.2c-1 6.5 8.5 8.6 9.7 9s3.7-.8 3.7-.8 1-3.7 2-4 1.6 1.5 2.3 1.5 4.3 2.7 6.4 4.8S69 73 69 73l1.4-3c.6-1.3 3 .8 3.2.8a3.6 3.6 0 0 1 3 .2c1.4 1 5 .2 7.9.5a23.6 23.6 0 0 1 6.3 2s1.4-1.5 2.5-2.9a4.2 4.2 0 0 1 3.3-1.2s1.2-5.1 1-6.8-.5-4.1 1.5-2.2 1.1 7.2 1.1 7.2Z" class="cls-15"/><path fill="#b7eae8" stroke="#3c7bd6" stroke-linecap="round" stroke-linejoin="round" stroke-width="1.2" d="M101.5 52c-1.5 0-3.8-.5-4 0s3.6 4.6 4.5 5.5 4 .3 4-1.5a4.4 4.4 0 0 0-4.5-4Z"/><path fill="url(#linear-gradient-2)" d="M76.3 13.4a2.6 2.6 0 0 1-.4 0c-1.3-.2-2-1.6-2.5-2.5L73 10l-.2-.2a4.2 4.2 0 0 0-2.7-2 9 9 0 0 0-2-.2h-2.3a5.6 5.6 0 0 1-2.8-.5 2 2 0 0 1-1-1.9 2.5 2.5 0 0 1 1-2 9 9 0 0 1 4-.8 12.3 12.3 0 0 1 4.8.8 15.8 15.8 0 0 0 3.2.5l3 .5c2 .4 4 2.5 5.2 3.7l.5.5c.8.8 1.4 1.4 1.4 2.1a1 1 0 0 1-.5.8 1.6 1.6 0 0 1-1 .3 5 5 0 0 1-2.5-1 7.3 7.3 0 0 0-2.8-.3 3.7 3.7 0 0 1-.7 2.4 1.7 1.7 0 0 1-1.3.6Z"/><path d="M67.2 3.1a11.9 11.9 0 0 1 4.3.7c1 .5 4.6.6 6.4 1S82 7.6 83 8.6s2 1.8 1.4 2.3a1 1 0 0 1-.7.2 4.4 4.4 0 0 1-2.2-.8c-.6-.4-2.7-.5-3.5-.5h-.3c.2 1.3-.2 3-1.4 3h-.2c-1.3-.3-2-2.2-2.6-3a5 5 0 0 0-3.2-2.6 9 9 0 0 0-2-.1h-2.4a5.2 5.2 0 0 1-2.5-.4c-1.3-.9-.4-2.6.1-2.9a8.5 8.5 0 0 1 3.7-.7m0-1.2a9.5 9.5 0 0 0-4.2.8 3.1 3.1 0 0 0-1.5 2.5 2.6 2.6 0 0 0 1.3 2.5 6.1 6.1 0 0 0 3.1.6h2.4a8 8 0 0 1 1.7.1 3.6 3.6 0 0 1 2.4 1.8l.1.3.4.6c.6 1.1 1.4 2.6 3 2.9a3 3 0 0 0 .5 0 2.3 2.3 0 0 0 1.8-.8 3.9 3.9 0 0 0 .7-2.2 6.5 6.5 0 0 1 1.9.3 5.5 5.5 0 0 0 2.9 1 2.2 2.2 0 0 0 1.4-.5 1.6 1.6 0 0 0 .6-1.2c0-1-.7-1.7-1.5-2.5l-.4-.4-.2-.2c-1.1-1.2-3.3-3.4-5.4-3.9L75 3.2a17 17 0 0 1-3-.5 12.9 12.9 0 0 0-5-.8Z" class="cls-5"/><path d="M68.4 4c2.6.8 4.3 1.6 6 1.5S84.6 9.8 84 11a1 1 0 0 0 .5-.2c.6-.5-.4-1.3-1.4-2.3s-3.2-3.3-5-3.8-5.5-.5-6.4-1-5.4-1.3-8.1 0a1.6 1.6 0 0 0-.6.9 9 9 0 0 1 5.5-.6Zm36.2 51.3c-.2.4-1 .4-1.7 0s-1.2-1-1-1.3 1-.4 1.7 0 1.2.9 1 1.3Z" class="cls-15"/><path fill="#703c16" d="M84.7 36.3a10.5 10.5 0 0 0 1.1 2.5 7.6 7.6 0 0 0 2.2 2 .6.6 0 1 0 .6-1 7.4 7.4 0 0 1-1-.8l-.4-.4a.8.8 0 0 0-.1-.1l-.1-.1-.2-.3a7 7 0 0 1-.5-1s-.1-.1 0 0V37l-.2-.3-.2-.7a.6.6 0 0 0-1.2.3ZM89 36a12.9 12.9 0 0 0 3.2 2.5.6.6 0 0 0 .6-1 6.6 6.6 0 0 1-.9-.6l-.2-.1s-.1-.1 0 0v-.1l-.5-.3-1.3-1.2a.6.6 0 0 0-.8.8Zm18.8 8.4a12.6 12.6 0 0 1 4.6 9.8.6.6 0 0 0 1.2 0 13.7 13.7 0 0 0-5-10.7c-.6-.4-1.4.4-.8.9Zm-.5 6.4a3.6 3.6 0 0 1 1.2 3.8.6.6 0 1 0 1.2.3A5 5 0 0 0 108 50a.6.6 0 1 0-.8.9ZM92.6 35.1l1 1a.6.6 0 0 0 .4.1.6.6 0 0 0 .4-.2.6.6 0 0 0 .2-.4.6.6 0 0 0-.2-.4l-1-1a.6.6 0 0 0-.8 0 .6.6 0 0 0 0 1ZM76.4 51.2c-.2 3 2.7 4.7 5 5.6a.6.6 0 0 0 .8-.4.6.6 0 0 0-.4-.7 9 9 0 0 1-3-1.7 3.3 3.3 0 0 1-1.2-2.8.6.6 0 0 0-.6-.6.6.6 0 0 0-.6.6Z"/><path fill="#ceb891" stroke="#5b2307" stroke-linecap="round" stroke-linejoin="round" stroke-width="1.2" d="M1.2 29.6s21 9.5 45.3 8.8l7.5-6.6-46.5-2.6Z"/><path fill="#ceb891" d="M43.9 33.2c-16 0-42.5-3-42.8-3a.6.6 0 0 1 .1-1.2h.3c24.3-.5 43.8-1.8 44-1.8a.6.6 0 0 1 .5.4c1 2.8 6 3.1 8 3.1h1.3a.6.6 0 0 1 .3 1.1 16 16 0 0 1-6.5 1.4h-5.2Z"/><path d="M45.5 27.8c1.1 3 6.2 3.5 8.6 3.5h1.2c-1 .6-3.2 1-6.2 1.2l-5.2.2c-16.1 0-42.7-3-42.7-3h.4c24.5-.6 44-1.8 44-1.8m0-1.2h-.1c-.2 0-19.7 1.2-44 1.7h-.3a1.2 1.2 0 0 0-.1 2.4c.2 0 26.8 3 42.8 3h5.3c3.4-.3 5.6-.7 6.8-1.5a1.3 1.3 0 0 0 .5-1 1.2 1.2 0 0 0-1.2-1.2H54c-1.5 0-6.4-.2-7.3-2.7a1.2 1.2 0 0 0-1.2-.8Z" class="cls-7"/><path fill="url(#linear-gradient-3)" d="M26 58.5a.4.4 0 0 1-.2-.2c-.4-.5-.1-2.6.6-6.7l.3-1.6a3.5 3.5 0 0 0-.2-1 3 3 0 0 1 0-1.7c0-.5 1-6.1 1.4-9.8v-.2h.3a4.7 4.7 0 0 1 .5 0 16.7 16.7 0 0 1 4.1.8h.3v.3L31 45.5a6.8 6.8 0 0 1-1.1 2.3 2.9 2.9 0 0 0-.7 1.3s-1.9 9.3-3 9.3Z"/><path d="M28.7 37.5a16.5 16.5 0 0 1 4 .8s-1.5 5.2-2 7.1-1.7 2.6-2 3.6-2 9.2-2.7 9.2c-.8 0 .8-7.5.9-8.2s-.6-1.9-.3-2.6 1.5-9.8 1.5-9.8a4.1 4.1 0 0 1 .5 0m0-.6a5.4 5.4 0 0 0-.6 0h-.4v.5c-.6 3.5-1.4 9.2-1.6 9.7a3.2 3.2 0 0 0 .1 1.8 4 4 0 0 1 .2 1l-.3 1.6c-1 4.8-1 6.3-.6 6.9a.7.7 0 0 0 .5.3c.6 0 1.1-.4 2.3-4.6l1.2-5A2.7 2.7 0 0 1 30 48a7 7 0 0 0 1.1-2.4l2.2-7.1.1-.6-.5-.2a16.5 16.5 0 0 0-4.2-.8Z" class="cls-5"/><path fill="url(#linear-gradient-4)" d="M12.6 55.5a.6.6 0 0 1-.4-.2c-.3-.3-.4-1 .3-3.8l1-5.2c-.4-.6-.3-1.8.2-3.7l1-7.4V35h.4c2.2.2 7.5.8 8 1.8a.5.5 0 0 1 0 .5 55.1 55.1 0 0 0-2.3 5.9c-2 5.4-2 5.5-2.4 5.5-.6-.2-.5-.9 0-3.1V45c.1-.6.3-2.6.3-4.1a37.2 37.2 0 0 0-1.3 3.7 19 19 0 0 1-1.8 4l-.9 2.4c-1.4 4-1.7 4.5-2 4.5Z"/><path d="M15 35.3s8.6.7 7.8 1.8-4 11.2-4.4 11.2c-.3 0 .2-2.4.4-3.3s.3-6 .3-6l-2 5.6a17.8 17.8 0 0 1-1.7 4c-.5.7-2.3 6.6-2.8 6.6-.4 0-.5-1 .2-3.7a52.2 52.2 0 0 0 1-5.3c-.5-.4-.2-1.9.2-3.6s1-7.3 1-7.3m-.4-.7-.1.6-1.1 7.3c-.5 2-.6 3.2-.3 3.9 0 .7-.4 2.8-.9 5-.7 2.7-.6 3.6-.3 4a.9.9 0 0 0 .7.4c.7 0 1-.5 2.4-4.7l1-2.3a19.1 19.1 0 0 0 1.8-4.1 18 18 0 0 1 .6-1.9l-.2 2-.1.6c-.5 2.2-.6 3.2.2 3.4h.1c.6 0 .7 0 2.7-5.6a58.3 58.3 0 0 1 2.2-5.8.8.8 0 0 0 0-.9c-.3-.8-3-1.5-8.2-2h-.5Z" class="cls-5"/><path fill="url(#linear-gradient-5)" d="M.7 46.8H.6c-.3-.4-.1-1.6.5-5.4l.6-4 .6-6V31h.2a26.7 26.7 0 0 1 3.2-.2c1.4 0 1.8.2 2 .4a.6.6 0 0 1 .2.4c0 .8-1.2 3-2.7 5.6l-.8 1.4L3 42.4C1.5 46.4 1.3 47 .9 47Z"/><path d="M5.8 31.1c1 0 1.8.1 1.8.5 0 1-2.6 5.3-3.4 6.8S1.3 46.7.9 46.7c-.5 0 .8-6.5 1-9.2l.7-6a26.6 26.6 0 0 1 3.2-.3m0-.6a27.8 27.8 0 0 0-3.3.3H2v.5l-.6 6-.6 4C.1 45.8 0 46.6.4 47l.1.2h.3c.7 0 1-.4 2.5-4.7.5-1.5 1-3.1 1.4-3.7l.8-1.4C7 34.6 8 32.5 8.2 31.6a.9.9 0 0 0-.3-.6c-.3-.4-1-.5-2.2-.5Z" class="cls-5"/><path d="M28.8 38.1a13.7 13.7 0 0 1 3.2.6l-2 6.6a6 6 0 0 1-1 2 3.7 3.7 0 0 0-.7 1.6l-1.6 6.5a91.6 91.6 0 0 1 .9-5.4 4.2 4.2 0 0 0-.2-1.3 2.6 2.6 0 0 1-.1-1.1l1.5-9.5m0-.6a4.1 4.1 0 0 0-.6 0s-1.2 9.2-1.5 9.9.3 1.8.3 2.6-1.6 8.1-.9 8.2c.8 0 2.6-8 2.8-9.1s1.2-1.7 1.8-3.6l2-7.2a16.5 16.5 0 0 0-4-.7ZM15.6 36c1.3 0 2.7.2 4 .4l-1 2.4c-.1.2-1.8 4.5-2 5.7a18 18 0 0 1-1.7 3.7 25.5 25.5 0 0 0-1 2.6L13 53l.3-1.3a52.4 52.4 0 0 0 1-5.4v-.4l-.3-.2c0-.1-.1-.8.4-3l1-6.8m4.3.6a12 12 0 0 1 2.3.5c-.5.9-1.2 2.8-2.2 5.8l-.5 1.3.3-5 .1-2.6M15 35.2s-.7 5.7-1.1 7.4-.6 3.2-.2 3.5a52.2 52.2 0 0 1-1 5.4c-.7 2.7-.6 3.7-.1 3.7.4 0 2.3-6 2.7-6.7a17.8 17.8 0 0 0 1.8-4c.2-1 2-5.5 2-5.5s-.2 5.1-.4 6-.7 3.2-.3 3.3c.3 0 3.6-10.2 4.3-11.2S15 35.2 15 35.2Zm-9.2-3.5a4.5 4.5 0 0 1 1.1.1 40.3 40.3 0 0 1-2.5 5l-.8 1.4L2.1 42l-.4 1.1.3-1.6a74 74 0 0 0 1-9.6 21.9 21.9 0 0 1 2.6-.2m0-.6a26.6 26.6 0 0 0-3.1.2s-.4 3.4-.6 6-1.5 9.2-1 9.3c.4 0 2.5-6.7 3.3-8.2s3.3-5.8 3.4-6.8c0-.4-.9-.5-1.9-.5Z" class="cls-15"/><path d="M29.3 42.4c0 .7-.5 1.2-1 1.2s-.6-.7-.5-1.5.5-1.2 1-1.1.7.7.5 1.4Zm-13-1.5c-.3 1-.8 1.7-1.3 1.6s-.6-1-.3-2 .9-1.7 1.3-1.6.6 1 .3 2Zm39-9.7c-1 .7-3.2 1-6.2 1.3-2-.6-4.1-1.5-5.2-3.2 0 0-31 1.2-42.3.3 24.5-.5 44-1.8 44-1.8 1.4 4 9.2 3.5 9.7 3.4Z" class="cls-15"/></g></g></svg>