<svg xmlns="http://www.w3.org/2000/svg" xmlns:xlink="http://www.w3.org/1999/xlink" viewBox="0 0 121 106.1"><defs><linearGradient id="linear-gradient" x1="79.9" x2="79.9" y1="95.7" y2="62" gradientUnits="userSpaceOnUse"><stop offset="0" stop-color="#dbffff"/><stop offset="1" stop-color="#339ed3"/></linearGradient><linearGradient xlink:href="#linear-gradient" id="linear-gradient-2" x1="76.8" x2="76.8" y1="4" y2="13.6"/><style>.cls-1{fill:#755b46}.cls-2{fill:#4c1a09}.cls-3{fill:none;stroke:#4c1a09;stroke-width:.6px;stroke-linecap:round;stroke-linejoin:round}.cls-4{fill:#b7eae8}.cls-5{fill:#3c7bd6}.cls-7{fill:#5b2307}.cls-9{fill:#bd852d}.cls-12{fill:#fff}.cls-19{fill:#ff1c49}.cls-20{opacity:.31}</style></defs><g id="Layer_2" data-name="Layer 2"><g id="Layer_1-2" data-name="Layer 1"><path d="M54.8 101.4a1 1 0 0 1-1-.7c-.2-.9.6-2.3 1.6-3.5L51.7 99l-4.1 2a2.7 2.7 0 0 1-1 .1 1.8 1.8 0 0 1-1.7-1.1 2 2 0 0 1 .6-2.2 31.1 31.1 0 0 1 4.1-2.6c-2.8 0-4.1-.4-4.3-1.4s1.3-1.6 2.6-2a78.3 78.3 0 0 1 8.4-1.1 36 36 0 0 1 3.9-.3c5 0 5.4 1.2 5.5 1.6.4 1.2-1.4 2.5-3.5 4l-1.6 1.2-1.4 1.2c-2 1.8-3.5 3-4.4 3Z" class="cls-1"/><path d="M60.1 91c2.7 0 4.8.4 5 1.1.4 1-3 3-4.9 4.5-1.5 1.3-4.4 4.2-5.4 4.2a.3.3 0 0 1-.4-.3c-.3-1.4 3.5-5 3.5-5-2.5 1-8.8 4.2-10.5 4.9a2 2 0 0 1-.8.1c-1.2 0-1.7-1.3-.7-2.2 1.3-1.2 8.6-5 8.5-5l-4 1.3h-.7c-5.6 0-4-1.6-1.7-2.2a79.1 79.1 0 0 1 8.4-1.1 35.7 35.7 0 0 1 3.8-.3m0-1.2a35.3 35.3 0 0 0-4 .2 80 80 0 0 0-8.5 1.2c-2 .5-3.1 1.5-3 2.7s1.3 1.6 2.8 1.8a18.6 18.6 0 0 0-2.4 1.6 2.6 2.6 0 0 0-.8 2.9 2.4 2.4 0 0 0 2.2 1.5 3.3 3.3 0 0 0 1.3-.3c.8-.3 2.3-1 4.1-2l1.7-.8a3 3 0 0 0-.4 2.1 1.5 1.5 0 0 0 1.6 1.3c1 0 2.3-1 4.8-3.2l1.4-1.2 1.6-1.2c2.3-1.7 4.2-3 3.7-4.6-.3-1-1.2-2-6.2-2Z" class="cls-2"/><path d="M47.8 96.4a3 3 0 0 1 2 3.2m1.7-5s3.1-.5 3 2.7m-5.3-5.6s1.5.9.8 3.3m6 1.8a2.5 2.5 0 0 1 3 1.9M53.2 91c.1.2 1.7.1 1.9 2 0 0 2.7-.7 3.4 1.7 0 0 2.7-.7 3.3 1.4" class="cls-3"/><path d="M77.4 105.5a1.3 1.3 0 0 1-1.4-.9c-.5-1.8 2.5-4.5 5-6.3l-2 .4a29 29 0 0 1-4 .6c-.3 0-1 0-1-.6s.4-1 1.1-1.4c3.3-2 11.2-3.5 12-3.7s7.5-3 10.4-3a1.7 1.7 0 0 1 1.6.6 1.3 1.3 0 0 1 0 1.4c-1.3 2.9-6.5 11.3-9.5 11.3a1.3 1.3 0 0 1-.4 0 1.4 1.4 0 0 1-1-1c-.4-1 .1-2.2.7-3.3l-1 .7a32.5 32.5 0 0 1-10.5 5.2Z" class="cls-1"/><path d="M97.4 91.2c1 0 1.4.3 1 1.1-1.4 3.2-6.5 11-9 11a1 1 0 0 1-.2 0c-2.2-.6 1.5-5.4 1.5-5.4-2 .9-10.6 7-13.4 7-.4 0-.7 0-.7-.4C75.9 102 84 97 84 97l-2.2.7c-1.6.1-5.6 1-7 1-.6 0-.6-.2.5-.8 3.4-2 11.8-3.6 11.8-3.6s7.4-3 10.3-3m0-1.2c-3 0-9.5 2.6-10.6 3-1 .2-8.8 1.8-12.1 3.7-.6.4-1.7 1-1.4 2.1 0 .4.4 1 1.6 1a25.4 25.4 0 0 0 3.7-.5c-2 1.7-3.6 3.7-3.2 5.4a1.9 1.9 0 0 0 2 1.4c2 0 5.6-2.1 10.1-5a3.2 3.2 0 0 0 0 1.8 2 2 0 0 0 1.5 1.4 2.6 2.6 0 0 0 .5 0c3.7 0 9.2-9.5 10-11.6a2 2 0 0 0 0-2 2.3 2.3 0 0 0-2.1-.8Z" class="cls-2"/><path d="M77.3 101.6s3.4-.5 4 2.6m-1-5.5s5.8-1.4 6.2 2.4m-8.8-5a2.1 2.1 0 0 1 .5 2.6m10.2 1.7s3-2.3 5.5-.2M83.4 95a1.5 1.5 0 0 1 1.9 1.1s4.3-1.3 6.2.7c0 0 3.7-2.5 5.5-.7" class="cls-3"/><path d="M61.9 94a11 11 0 0 1-4-.8c-6.4-2.4-6.8-9.3-6.8-9.4a.6.6 0 0 1 .5-.6A13.6 13.6 0 0 1 54 83a32 32 0 0 1 17 7 .6.6 0 0 1 .3.5.6.6 0 0 1-.2.5 17.3 17.3 0 0 1-9.2 3Z" class="cls-4"/><path d="M54 83.6c8.1 0 16.7 6.8 16.7 6.8a16.9 16.9 0 0 1-8.8 3 10.5 10.5 0 0 1-3.7-.7c-6.2-2.4-6.4-9-6.4-9a14 14 0 0 1 2.2-.1m0-1.2a14.9 14.9 0 0 0-2.4.2 1.2 1.2 0 0 0-1 1.2c0 .3.3 7.4 7.2 10a11.7 11.7 0 0 0 4.1.8 18 18 0 0 0 9.5-3.2 1.2 1.2 0 0 0 .5-1 1.2 1.2 0 0 0-.5-1c-.3-.3-9-7-17.4-7Z" class="cls-5"/><path fill="#a36731" d="M79.3 91.9c-1.3 0-2.5 0-3.7-.2-24-2.2-34-15.1-34.8-23.2a27.3 27.3 0 0 1 .7-9.9 3 3 0 0 1-1.8.8 1.2 1.2 0 0 1-.8-.3 2.7 2.7 0 0 1-.5-2.1 13 13 0 0 1 2.8-6 5 5 0 0 1-2 .7 1 1 0 0 1-.8-.3 1.6 1.6 0 0 1-.4-1.2c0-2.2 2.8-4.3 3.9-5A40.7 40.7 0 0 1 41 28a29 29 0 0 1 10.7-17c-1.2-.3-2.3-.8-2.4-1.7-.1-.6 0-1.4 1.7-2a14.2 14.2 0 0 1 3.5-.8C53.6 6 53 5.7 52.8 5c0-.4 0-1 .8-1.4a4.3 4.3 0 0 1 2.3-.6 13.8 13.8 0 0 1 4.6 1.1 2 2 0 0 1-.3-1.5 1 1 0 0 1 .9-.6.9.9 0 0 1 .2 0c1.4 0 3.3 1.9 4 2.6h1.2c19 0 27.1 11.9 30.7 21.8 2.3 6.3 7 9.2 12.6 12.7a29 29 0 0 1 9.8 10.4.8.8 0 0 1-.8 1.1h-.1a19.5 19.5 0 0 1 1.7 7.2.8.8 0 0 1-.8.8 1.3 1.3 0 0 1-.4 0c1 3 .6 7.1-.2 8a43.2 43.2 0 0 0-3.7 6.3 48 48 0 0 1-36 18.9Z"/><path d="M61.3 2.7c1.4 0 3.8 2.6 3.8 2.6h1.4c21 0 28 15 30.2 21.4s7.1 9.4 12.9 13a28.5 28.5 0 0 1 9.5 10.1c.1.3 0 .3-.2.3a5.7 5.7 0 0 1-1.6-.5c2.1 2.4 2.5 7.6 2.5 8.3a.2.2 0 0 1-.2.2 5 5 0 0 1-1.6-.8c1.7 3 1.3 8.2.6 9a41.7 41.7 0 0 0-3.8 6.6c-.1.6-14.3 18.5-35.5 18.5-1.2 0-2.4 0-3.6-.2C52.4 89 42.3 76.5 41.4 68.5a26.2 26.2 0 0 1 2.3-14 10.3 10.3 0 0 0-2.1 3.3S40.5 59 39.7 59c-.4 0-.8-.4-.7-1.8.3-3.6 4.4-7.7 4.4-7.7-1.7.4-3.4 1.8-4.3 1.8-.3 0-.5-.2-.5-1 .1-2.2 4-4.6 4-4.6s-2.5-6.9-1-17.4 11.6-17.6 11.6-17.6c-3-.1-4.7-1.6-2-2.7A21.1 21.1 0 0 1 58 7h1s-7.7-1.1-5-2.7a3.6 3.6 0 0 1 1.9-.5c2.8 0 6.5 2 6.5 2s-2.5-2.8-1.2-3h.1m0-1.2a1.7 1.7 0 0 0-.3 0 1.6 1.6 0 0 0-1.3 1 1.5 1.5 0 0 0-.1.7 12.2 12.2 0 0 0-3.7-.7 4.8 4.8 0 0 0-2.6.6 1.9 1.9 0 0 0-1 2 1.6 1.6 0 0 0 .4 1 10.8 10.8 0 0 0-2 .6c-2 .8-2.1 2-2 2.6a2.5 2.5 0 0 0 1.7 1.8 29.3 29.3 0 0 0-10 16.7 42 42 0 0 0 .8 17.2c-1.3 1-3.7 3-3.8 5.2a2.3 2.3 0 0 0 .5 1.7 1.6 1.6 0 0 0 1.2.5 1.8 1.8 0 0 0 .4 0 11.2 11.2 0 0 0-1.7 4.6 3.2 3.2 0 0 0 .6 2.6 1.8 1.8 0 0 0 1.3.5 2.4 2.4 0 0 0 .8-.1 27.7 27.7 0 0 0-.4 8.6c1 8.3 11.2 21.5 35.4 23.8l3.7.2c11.4 0 20.7-5 26.5-9.3 6-4.3 10.1-9.3 10.3-10.2a1 1 0 0 1 0 .1 47.8 47.8 0 0 1 3.5-6.2c1-1 1.3-4.7.5-7.8a1.4 1.4 0 0 0 1-1.4 21.4 21.4 0 0 0-1.4-6.7 1.4 1.4 0 0 0 .6-1.8 29.6 29.6 0 0 0-10-10.7c-5.4-3.4-10.1-6.3-12.3-12.4A31.1 31.1 0 0 0 66.6 4.1h-1c-1-1-2.8-2.7-4.2-2.7Z" class="cls-7"/><path fill="#8e5424" d="M114.8 72.8a41.7 41.7 0 0 1 3.8-6.6c.7-.7 1.1-6-.6-9 0 0 1.8 1.3 1.8.6s-.4-5.9-2.5-8.3c0 0 2.1 1 1.8.2a28.5 28.5 0 0 0-9.5-10.1 52.2 52.2 0 0 1-8-5.6s8 8.5 7.6 16.5-4 4.9-4 4.9l-6.6-3.5s2.2 6-1.3 8-4.5 0-4.5 0 1.2 3.9-3.4 4.9-16.4 1-21.6 0-12.1-3.3-12.8-7-1.4-4.5-1.4-4.5-5.1 7-5.7 3.6a11.8 11.8 0 0 1 .3-5.9s-4.2 2.7-3.8.9a22.1 22.1 0 0 1 1.5-3.8 13 13 0 0 1-3.5-2.5c-.8.5-3.7 2.6-3.8 4.6 0 2.3 2.3-.3 4.8-1 0 0-4 4.2-4.4 7.8s2.6.7 2.6.7a10.3 10.3 0 0 1 2-3.4 26.2 26.2 0 0 0-2.2 14c.9 8 11 20.6 34.3 22.8s39-17.7 39-18.3Z"/><path d="M103.7 69.4C93 68 72.5 60 75 49.8s10.6-7.4 13.5-20-10.1-20.3-20.3-19-15.2 11.3-15.6 12-5.3.7-7.2.3-1.1-2.5-1.1-2.6a22 22 0 0 0-2.6 7.6c-1.6 10.5 1 17.4 1 17.4s-4 2.4-4 4.7 2.3-.3 4.7-1c0 0-4 4.2-4.4 7.8s2.6.7 2.6.7a10.3 10.3 0 0 1 2-3.4 26.2 26.2 0 0 0-2.2 14c.9 8 11 20.6 34.3 22.8C95 93 109.4 79.3 113.5 74.5a14.1 14.1 0 0 0-9.8-5.1Z" class="cls-9"/><path fill="#91682c" d="M78.3 91.3h4l1.3-.1.6-.1 1.6-.3h.2l1.8-.3.5-.1 1.2-.4.6-.1 1.2-.4.5-.2L93 89l.5-.1 1.4-.6.1-.2 1.6-.7.3-.1 1.1-.6.5-.3 1-.5.4-.3 1-.5.4-.3 1.1-.6a1.4 1.4 0 0 1 .2-.2l1.3-.8.2-.1 1-.8.3-.2.8-.6.3-.3.7-.5.4-.3.7-.6.3-.3.8-.7a2.5 2.5 0 0 0 .3-.3l.6-.5.3-.3.4-.4.4-.4.3-.3.3-.4.3-.2.3-.4h.1l.8-1a13.5 13.5 0 0 0-9.8-5A59.6 59.6 0 0 1 88.5 65c-5 .8-15.8.8-20.7-.2-5.2-1-12.1-3.2-12.8-7s-1.4-4.4-1.4-4.4-5.1 6.9-5.7 3.5a11.8 11.8 0 0 1 .3-5.9s-4.2 2.7-3.8.9a22.1 22.1 0 0 1 1.5-3.8 13 13 0 0 1-3.5-2.5l-.1.1h-.1l-.2.2-.2.2h-.1l-.2.2h-.1l-.3.3-.3.3a.4.4 0 0 0-.1 0 3.8 3.8 0 0 0-.3.4 7.6 7.6 0 0 0-.8.7v.1l-.3.3v.1l-.2.3a1 1 0 0 0-.1.2 2.1 2.1 0 0 0-.1.3v.1a1.3 1.3 0 0 0-.2.3.5.5 0 0 0 0 .1 2.8 2.8 0 0 0 0 .4c-.1 2.3 2.3-.3 4.7-.9 0 0-4 4.1-4.3 7.8s2.5.7 2.5.7a10.3 10.3 0 0 1 2-3.4 26.2 26.2 0 0 0-2.2 14c.9 8 11 20.6 34.3 22.8l2 .1Z"/><path fill="#a18f70" d="M50.7 35.7h-.1c-3.3-.8-9.2-1.2-17.6-1.2-13.9 0-29.9 1.1-30 1.1a.6.6 0 0 1-.6-.5.6.6 0 0 1 .4-.6A137.8 137.8 0 0 1 40 29.8a152 152 0 0 1 18.5 1 .6.6 0 0 1 .4 1 27 27 0 0 1-8 3.9.5.5 0 0 1-.2 0Z"/><path d="M40 30.4a148.4 148.4 0 0 1 18.4 1c-1 1.3-7.7 3.7-7.7 3.7A96.8 96.8 0 0 0 33 33.8C19 34 2.9 35 2.9 35 16 31.3 29.6 30.4 40 30.4m0-1.2a138.7 138.7 0 0 0-37.4 4.7 1.2 1.2 0 0 0 .3 2.3H3c.2 0 16.2-1 30-1 8.3 0 14.2.3 17.4 1a1.4 1.4 0 0 0 .7 0c2.1-.7 7.2-2.5 8.3-4a1.2 1.2 0 0 0 .1-1.2 1.2 1.2 0 0 0-1-.7A150.6 150.6 0 0 0 40 29.2Z" class="cls-7"/><path d="M19.5 39.4c0 1-.3 1.9-.8 1.9s-.8-.9-.8-2 .3-1.8.8-1.8.8.8.8 1.9Z" class="cls-12"/><path fill="#ceb891" d="M1.2 36a.6.6 0 0 1-.6-.4.6.6 0 0 1 .3-.7C18.8 25.7 42.7 25 49.6 25h1.9a.6.6 0 0 1 .5.3c2 3.6 6.6 5.5 6.6 5.6a.6.6 0 0 1 .4.7.6.6 0 0 1-.6.4 137.6 137.6 0 0 0-15-.7 205 205 0 0 0-42 4.7Z"/><path d="M49.6 25.6h1.9c2 3.8 7 5.8 7 5.8a137 137 0 0 0-15-.8 203 203 0 0 0-42.3 4.8c17.8-9.1 41.5-9.8 48.4-9.8m0-1.2c-7 0-31 .7-49 10a1.2 1.2 0 0 0 .6 2.2 1.3 1.3 0 0 0 .3 0 203.7 203.7 0 0 1 42-4.7 136.3 136.3 0 0 1 14.8.8h.1a1.2 1.2 0 0 0 .5-2.3s-4.5-1.9-6.4-5.3a1.2 1.2 0 0 0-1-.7s-.7 0-2 0Z" class="cls-7"/><path d="M51.5 25.6s-29.4-1-50.3 9.8l2.1-.5c12.4-5.9 43.4-8.4 45.4-8.2s7.5 4.5 7.5 4.5h.2l2 .2s-4.8-2-7-5.8Z" class="cls-12"/><path fill="none" stroke="#5b2307" stroke-linecap="round" stroke-linejoin="round" stroke-width="1.2" d="M58.3 31.7a4.6 4.6 0 0 0 2.7-2.2"/><path d="M88.5 95.5c-3 0-4.4-1.2-4.9-1.9h-2.3a61 61 0 0 1-22.6-4.1c-9.7-4-11.8-6.5-13-8a5.4 5.4 0 0 0-.7-.8 5.7 5.7 0 0 1-1.7-3 4 4 0 0 0-.2-.5V77c-2.5-2.3-3.7-4.6-3.7-7v-2c0-2.7 0-5.4 1.1-6.6A2 2 0 0 1 42 61a3.2 3.2 0 0 1 1 .1.6.6 0 0 1 .3.7c0 .7.2 3 1.3 3.7 1.6 1.2 5.9 3.8 8 3.8h.2c1.8-.2 1.8-.7 1.8-1.5 0-1 .5-3.5 2.4-4a2.9 2.9 0 0 1 .7 0 2.3 2.3 0 0 1 2 1.5v.2a4 4 0 0 1 .5.2 8.2 8.2 0 0 1 3 2 22.3 22.3 0 0 0 6 4.3 4.4 4.4 0 0 0 1.7.5.4.4 0 0 0 .2 0 10.6 10.6 0 0 0 .1-1.2c.2-2.2.3-2.8.8-3l.4-.3c.6-.5 1-.7 1.3-.7a1 1 0 0 1 .2 0c.3 0 .5.1 1.4 2.3A3.3 3.3 0 0 1 77 69a3.6 3.6 0 0 1 1.2.2 28 28 0 0 0 5.5 1.7h.7c1 0 6 .2 6.8.6a16 16 0 0 0 2.4 1v-.1c1-1.5 2.3-3.1 3.4-3.4l1.7-.3c.3-1.4.7-3.5.4-4.2-.5-1.5-1.1-3.5.3-4.7a2 2 0 0 1 1.3-.5c1.4 0 2.7 1.3 3.6 2.5 1 1.5 1.7 2.4 1.3 3.4a18.7 18.7 0 0 0-.2 2.8 14.1 14.1 0 0 0 2.6.2 15.4 15.4 0 0 0 2.8-.2c0-.9 0-2.4 1.3-2.9a6.2 6.2 0 0 1 2-.4 2 2 0 0 1 1.2.2 3 3 0 0 1 .2.2c-.3-4 .2-4.2.5-4.3a1.4 1.4 0 0 1 .7-.2 3.5 3.5 0 0 1 2.2 1.2c.7.6 1.7 2.3 1.5 3.3a14 14 0 0 1-2.2 4 7.3 7.3 0 0 0-1.3 4.2c0 1.1-1.3 2.2-2.4 3a6.5 6.5 0 0 0-.9.9c0 .1-9.6 13.9-18.2 16.9a21.6 21.6 0 0 1-6.9 1.4Zm-29.7-27a1 1 0 0 0-1 1.1c0 1.5.7 5 2.3 5a1.8 1.8 0 0 0 1.5-1.4c.3-1.2 0-3-2.2-4.4a1 1 0 0 0-.6-.3Z" class="cls-4"/><path d="M100.7 60c1 0 2.3 1 3 2.1 1 1.5 1.5 2.2 1.3 2.9a24.6 24.6 0 0 0-.3 3.5 12.8 12.8 0 0 0 3.3.3 16.8 16.8 0 0 0 3.4-.3s-.4-2.4.8-2.8a5.5 5.5 0 0 1 2-.4 1.7 1.7 0 0 1 .7.2l1.3 1s-.6-4.9 0-5.2a.9.9 0 0 1 .4 0 3 3 0 0 1 1.8 1 4.2 4.2 0 0 1 1.4 2.7 13.2 13.2 0 0 1-2.1 3.8 7.9 7.9 0 0 0-1.4 4.5c0 1.3-2.7 2.9-3.2 3.5s-9.6 13.9-17.9 16.7a20.7 20.7 0 0 1-6.6 1.4c-3.1 0-4.3-1.3-4.7-2 0 0-1 .2-2.6.2C77 93 67.6 92.6 59 89c-11.8-5-12.2-7.5-13.6-8.7s-1.5-3.1-1.8-3.5-3.7-3.1-3.6-6.7c0-3.2-.6-8.5 2-8.5a2.5 2.5 0 0 1 .8 0s-.2 3.2 1.5 4.4 6 3.8 8.4 3.8h.3c2.3-.2 2.3-1.2 2.3-2s.4-3 2-3.4a2.3 2.3 0 0 1 .5 0c1.1 0 1.4 1 1.6 1.4s2.1.8 3.5 2.3a22.8 22.8 0 0 0 6.1 4.4 5.2 5.2 0 0 0 2 .6c.5 0 .8-.2.8-.6.2-.7.3-3.6.6-3.8s1.2-1 1.4-1a17.1 17.1 0 0 1 1.3 2.7 2.8 2.8 0 0 1 2-.8 2.6 2.6 0 0 1 1 .2 28.8 28.8 0 0 0 5.7 1.8h.6a41.4 41.4 0 0 1 6.5.4 12.6 12.6 0 0 0 3 1.2c.3-.3 2-3.2 3.3-3.5l2-.4s1-3.6.5-5-1-3 .1-4a1.4 1.4 0 0 1 1-.3M60 75.2h.2c2.4-.3 3.4-4.3-.5-7a1.7 1.7 0 0 0-.9-.3 1.5 1.5 0 0 0-1.5 1.7c0 1.5.6 5.6 2.8 5.6m40.6-16.5a2.6 2.6 0 0 0-1.7.6c-1.7 1.5-1 4-.5 5.4a9.8 9.8 0 0 1-.3 3.5l-1.3.3c-1.3.3-2.4 1.7-3.5 3.3a20.7 20.7 0 0 1-2-.9c-1-.5-7-.6-7-.6h-.7a29.2 29.2 0 0 1-5.2-1.6 4.2 4.2 0 0 0-1.5-.3 4 4 0 0 0-1.4.3c-.8-1.8-1-2-1.4-2a1.5 1.5 0 0 0-.5 0 2.8 2.8 0 0 0-1.6.7l-.4.3c-.7.4-.8 1.3-1 3.5v.7a5.9 5.9 0 0 1-1.2-.4 21.6 21.6 0 0 1-5.8-4.2 8.7 8.7 0 0 0-3.1-2.2 2 2 0 0 1-.3-.1 2.8 2.8 0 0 0-2.6-2 3.4 3.4 0 0 0-.8.2c-2.3.5-2.9 3.3-2.9 4.6 0 .6 0 .7-1.2.9h-.2C51 68.7 47 66.5 45 65c-1-.7-1-2.6-1-3.3a1.2 1.2 0 0 0-.9-1.2 4 4 0 0 0-1-.2 2.6 2.6 0 0 0-2 .8c-1.4 1.4-1.3 4.3-1.3 7v2c0 2.5 1.3 5 3.8 7.4a3 3 0 0 1 .1.4 6.3 6.3 0 0 0 2 3.3 5 5 0 0 1 .6.7c1.3 1.5 3.4 4.1 13.2 8.2a62 62 0 0 0 22.9 4.1h2c.7.8 2.2 1.9 5.2 1.9a22.3 22.3 0 0 0 7-1.4c8.9-3 18.5-17 18.6-17.2a9 9 0 0 1 .7-.6c1.2-1 2.6-2.2 2.6-3.6a6.6 6.6 0 0 1 1.2-3.7 14.3 14.3 0 0 0 2.3-4.4c.2-1.3-.8-3-1.7-3.9a4 4 0 0 0-2.6-1.3 2.1 2.1 0 0 0-1 .2c-.5.3-1 .6-.9 4a4.2 4.2 0 0 0-.6 0 6.6 6.6 0 0 0-2.3.4 3 3 0 0 0-1.7 2.9 14.7 14.7 0 0 1-2.2.2 14.5 14.5 0 0 1-2-.2 14.9 14.9 0 0 1 .2-2.1c.4-1.3-.3-2.3-1.4-4-.5-.6-2.1-2.7-4-2.7ZM60 74c-.7 0-1.5-2.5-1.5-4.3 0-.3 0-.5.3-.5a.5.5 0 0 1 .3 0c1.8 1.3 2.2 2.8 2 3.8a1.3 1.3 0 0 1-1 1Z" class="cls-5"/><path fill="url(#linear-gradient)" d="M116.3 61.3c-.6.3 0 5.2 0 5.2l-1.4-1a4.3 4.3 0 0 0-2.6.2c-1.2.4-.8 2.8-.8 2.8a15.8 15.8 0 0 1-6 .1s.6 4-1.1 6.3-13.3 4.2-17.9 6.8-16.9 1-25.5-2.1S48.3 73.9 47.5 68a31.6 31.6 0 0 1-3.3-2c-1.6-1.2-1.5-4.3-1.5-4.3-3.4-1-2.6 4.9-2.7 8.4s3.2 6.3 3.6 6.7.3 2.3 1.8 3.5S47.2 84.1 59 89s25 4 25 4c.5 1 3 3.4 11.3.5s17.4-16 17.9-16.6 3.2-2.3 3.2-3.6a7.9 7.9 0 0 1 1.3-4.5 13.2 13.2 0 0 0 2.1-3.8 4.2 4.2 0 0 0-1.3-2.8c-.8-.7-1.6-1.2-2.2-.9Z"/><path d="M100.7 60.5a4 4 0 0 1 2.6 2c1 1.4 1.3 2 1.2 2.4a21.4 21.4 0 0 0-.4 3.6.6.6 0 0 0 .5.6 13.9 13.9 0 0 0 3.4.4 17.2 17.2 0 0 0 3.6-.4.6.6 0 0 0 .5-.7c-.1-.6-.1-2 .4-2.1a5 5 0 0 1 1.7-.3 1.9 1.9 0 0 1 .4 0l1.3 1a.6.6 0 0 0 .4.1.6.6 0 0 0 .3 0 .6.6 0 0 0 .3-.7 22.5 22.5 0 0 1-.2-4.6c.1 0 .6 0 1.4.8a3.9 3.9 0 0 1 1.1 2.3 13.6 13.6 0 0 1-2 3.5 8.4 8.4 0 0 0-1.5 4.9c0 .6-1.3 1.6-2 2.1a6 6 0 0 0-1 1c-.2.2-9.4 13.7-17.6 16.5a20.3 20.3 0 0 1-6.5 1.4c-3.1 0-4-1.3-4.1-1.6a.6.6 0 0 0-.5-.3h-2.6c-4.7 0-13.8-.5-22.2-4-9.4-3.9-11.4-6.2-12.6-7.6a7.6 7.6 0 0 0-.8-1 4.5 4.5 0 0 1-1.3-2.4 2.5 2.5 0 0 0-.5-1l-.2-.2c-2.1-2-3.2-4-3.2-6v-2c0-2.2 0-5 .8-5.8a.9.9 0 0 1 .6-.2h.2c0 1 .2 3.2 1.7 4.3s6 4 8.8 4h.3c2.7-.3 2.9-1.5 2.9-2.7 0-.8.4-2.6 1.5-2.8a1.5 1.5 0 0 1 .3 0c.5 0 .7.2 1 .8a3.5 3.5 0 0 0 .1.4 2.2 2.2 0 0 0 1 .6 7.1 7.1 0 0 1 2.6 1.8 23.6 23.6 0 0 0 6.4 4.6 5.6 5.6 0 0 0 2.2.6 1.3 1.3 0 0 0 1.4-1l.1-1.3a15.2 15.2 0 0 1 .3-2.2l.5-.3.3-.3 1 2.1a.6.6 0 0 0 .4.2h.1a.6.6 0 0 0 .5-.2 2.3 2.3 0 0 1 1.4-.6 2 2 0 0 1 .8.2s4.6 1.8 6 1.8h.6a47.8 47.8 0 0 1 6.2.4 11 11 0 0 0 3.2 1.2.7.7 0 0 0 .6-.3l.3-.4c1.1-1.7 2-2.7 2.6-2.8l2-.5a.6.6 0 0 0 .5-.4c0-.4 1-3.8.5-5.3s-.9-2.7-.1-3.4a.8.8 0 0 1 .5-.2M60 75.8h.3a3 3 0 0 0 2.5-2.4c.4-1.6-.1-3.9-2.7-5.7a2.2 2.2 0 0 0-1.3-.4 2.1 2.1 0 0 0-2.1 2.3c0 1.6.6 6.2 3.3 6.2m40.8-15.9a1.4 1.4 0 0 0-1 .3c-1.2 1-.6 2.8-.1 4.1s-.5 5-.5 5l-2 .4c-1.4.3-3 3.1-3.3 3.4h-.1a12.6 12.6 0 0 1-2.9-1.1 41.4 41.4 0 0 0-6.5-.5h-.6a28.8 28.8 0 0 1-5.8-1.7 2.6 2.6 0 0 0-1-.2 2.8 2.8 0 0 0-2 .8 17.1 17.1 0 0 0-1.2-2.6c-.3 0-1 .7-1.4.9s-.5 3.1-.6 3.8c0 .4-.4.6-.8.6a5.2 5.2 0 0 1-2-.6 22.8 22.8 0 0 1-6.2-4.4c-1.4-1.6-3.3-2-3.5-2.3s-.5-1.5-1.6-1.5a2.3 2.3 0 0 0-.5 0c-1.6.4-2 2.7-2 3.5s0 1.8-2.3 2h-.3c-2.4 0-6.8-2.7-8.4-3.9s-1.5-4.3-1.5-4.3a2.5 2.5 0 0 0-.8 0c-2.6 0-1.9 5.2-2 8.5 0 3.5 3.2 6.2 3.6 6.6s.3 2.4 1.8 3.6S47.2 84 59 89c8.6 3.6 18 4 22.4 4H84c.3.6 1.5 1.9 4.6 1.9a20.7 20.7 0 0 0 6.7-1.4c8.2-2.8 17.4-16 17.9-16.6s3.1-2.3 3.1-3.6a7.9 7.9 0 0 1 1.4-4.5 13.2 13.2 0 0 0 2.1-3.8 4.2 4.2 0 0 0-1.3-2.8 3 3 0 0 0-1.8-1 .9.9 0 0 0-.4.1c-.6.3 0 5.2 0 5.2l-1.4-1a1.7 1.7 0 0 0-.7-.2 5.5 5.5 0 0 0-2 .4c-1.1.4-.7 2.8-.7 2.8a16.8 16.8 0 0 1-3.5.3 12.8 12.8 0 0 1-3.2-.3 24.6 24.6 0 0 1 .3-3.5c.2-.7-.3-1.4-1.3-2.9-.8-1.1-2-2.2-3-2.2ZM60 75.2c-2.1 0-2.7-4.1-2.7-5.6a1.5 1.5 0 0 1 1.5-1.7 1.7 1.7 0 0 1 1 .3c3.8 2.7 2.8 6.7.4 7Z" class="cls-4"/><path d="M106.2 68.7a9.4 9.4 0 0 1-1.4-.2 24.6 24.6 0 0 1 .3-3.5c.2-.7-.3-1.4-1.3-2.9s-2.8-2.8-4-1.9-.6 2.8-.2 4.1-.5 5-.5 5l-2 .4c-1.3.3-3 3.1-3.2 3.4s-2.4-.8-3-1a43.9 43.9 0 0 0-7.1-.5c-.8 0-4-1-5.8-1.8a2.8 2.8 0 0 0-3 .6 17.1 17.1 0 0 0-1.2-2.6c-.3 0-1 .7-1.5.9s-.4 3-.6 3.8-1.1.8-2.8 0a22.8 22.8 0 0 1-6.2-4.4c-1.3-1.6-3.2-2-3.4-2.3s-.5-1.9-2.1-1.5-2 2.7-2 3.5 0 1.8-2.4 2-7-2.6-8.6-3.9-1.5-4.3-1.5-4.3a2.3 2.3 0 0 0-.8 0c-1 6.4 8.5 8.5 9.7 9s3.7-1 3.7-1 1-3.6 2-4 1.6 1.5 2.3 1.5S63.8 70 66 72s6.2 2.5 6.2 2.5l1.4-3.1c.6-1.3 3 1 3.2 1a3.6 3.6 0 0 1 3 .1c1.4 1 5 .2 7.8.5a23.6 23.6 0 0 1 6.4 2s1.4-1.5 2.5-3a4.2 4.2 0 0 1 3.3-1.1s1.2-5.1 1-6.9-.5-4 1.5-2.2 1.1 7.3 1.1 7.3Z" class="cls-12"/><path fill="#b7eae8" stroke="#3c7bd6" stroke-linecap="round" stroke-linejoin="round" stroke-width="1.2" d="M104.8 53.5c-1.6 0-3.8-.5-4 0s3.6 4.6 4.5 5.5 3.9.3 3.9-1.6a4.4 4.4 0 0 0-4.5-3.9Z"/><path fill="url(#linear-gradient-2)" d="M79.6 15a1.8 1.8 0 0 1-.4 0c-1.3-.3-2-1.7-2.5-2.6a7.4 7.4 0 0 0-.5-.8l-.1-.2a4.2 4.2 0 0 0-2.7-2 8.9 8.9 0 0 0-2-.2h-2.3a5.6 5.6 0 0 1-2.8-.5 2 2 0 0 1-1-1.9 2.6 2.6 0 0 1 1-2 9 9 0 0 1 4-.7 12.6 12.6 0 0 1 4.8.8 15.7 15.7 0 0 0 3.2.5l3 .4c1.9.4 4 2.6 5.1 3.8l.6.4c.8.8 1.4 1.4 1.4 2a1 1 0 0 1-.5.8 1.7 1.7 0 0 1-1 .4 5 5 0 0 1-2.5-1 7.2 7.2 0 0 0-2.8-.3 3.7 3.7 0 0 1-.7 2.4 1.7 1.7 0 0 1-1.3.6Z"/><path d="M70.4 4.6a12.1 12.1 0 0 1 4.4.7c.9.5 4.6.6 6.4 1s4 2.8 5 3.8 2 1.8 1.4 2.3a1 1 0 0 1-.7.2 4.3 4.3 0 0 1-2.2-.8c-.6-.5-2.7-.5-3.5-.5H81c.2 1.3-.2 3-1.4 3h-.2c-1.4-.3-2-2.3-2.6-3a5 5 0 0 0-3.2-2.6 9 9 0 0 0-2-.2h-2.3a5.1 5.1 0 0 1-2.5-.4c-1.3-.8-.5-2.5 0-2.8a8.7 8.7 0 0 1 3.8-.7m0-1.3a9.7 9.7 0 0 0-4.3.9 3.1 3.1 0 0 0-1.4 2.5A2.6 2.6 0 0 0 66 9.2a6 6 0 0 0 3.1.6h2.4a8.8 8.8 0 0 1 1.7.1 3.7 3.7 0 0 1 2.4 1.8l.2.3.4.7c.5 1 1.4 2.5 2.9 2.8a2.2 2.2 0 0 0 .5 0 2.3 2.3 0 0 0 1.8-.9 4 4 0 0 0 .8-2 6.6 6.6 0 0 1 1.9.2 5.5 5.5 0 0 0 2.9 1 2.1 2.1 0 0 0 1.4-.5 1.6 1.6 0 0 0 .6-1.2c0-1-.7-1.7-1.5-2.5l-.4-.4-.2-.1c-1.1-1.2-3.3-3.5-5.4-4a30.1 30.1 0 0 0-3.1-.4 19.4 19.4 0 0 1-3-.5 12.6 12.6 0 0 0-5-.8Z" class="cls-5"/><path d="M71.7 5.5c2.6.8 4.3 1.6 6 1.5s10.2 4.3 9.5 5.6a1 1 0 0 0 .4-.2c.6-.5-.4-1.3-1.3-2.3s-3.2-3.4-5-3.8-5.5-.5-6.4-1-5.4-1.3-8.1 0a1.7 1.7 0 0 0-.6.9 9 9 0 0 1 5.5-.7Zm36.1 51.3c-.1.3-.9.3-1.6 0s-1.2-1-1-1.4 1-.3 1.6 0 1.2 1 1 1.4Z" class="cls-12"/><path fill="#703c16" d="M88 37.8a10.1 10.1 0 0 0 1.1 2.5 8 8 0 0 0 2.2 2 .6.6 0 0 0 .8-.2.6.6 0 0 0-.2-.8 6.8 6.8 0 0 1-1-.8 4.6 4.6 0 0 1-.4-.5h-.1v-.1l-.2-.3a6.6 6.6 0 0 1-.5-1s-.1-.1 0 0v-.2l-.2-.3-.2-.6a.6.6 0 0 0-.7-.4.6.6 0 0 0-.5.7Zm4.3-.4a12.7 12.7 0 0 0 3.2 2.5.6.6 0 0 0 .8-.2.6.6 0 0 0-.2-.8 7.3 7.3 0 0 1-1-.5l-.1-.2a.4.4 0 0 1-.1 0l-.4-.4-1.3-1.2a.6.6 0 0 0-.8 0 .6.6 0 0 0 0 .9Zm18.7 8.5a12.6 12.6 0 0 1 4.7 9.8.6.6 0 0 0 1.2 0 13.8 13.8 0 0 0-5-10.7c-.6-.4-1.5.4-.9.9Zm-.5 6.4a4 4 0 0 1 1.2 1.7 3.8 3.8 0 0 1 0 2 .6.6 0 0 0 .5.7.6.6 0 0 0 .8-.4 4.9 4.9 0 0 0-1.6-4.9.6.6 0 0 0-.9 0 .6.6 0 0 0 0 .9ZM95.8 36.6l1 1a.6.6 0 0 0 .5.1.6.6 0 0 0 .4-.2.6.6 0 0 0 .2-.4.6.6 0 0 0-.2-.4l-1-1a.6.6 0 0 0-.4-.1.6.6 0 0 0-.4.2.6.6 0 0 0-.2.4.6.6 0 0 0 .2.4ZM79.7 52.7c-.2 3 2.6 4.7 5 5.6a.6.6 0 0 0 .8-.4.6.6 0 0 0-.4-.7 9.3 9.3 0 0 1-3-1.7 3.4 3.4 0 0 1-1.2-2.8.6.6 0 1 0-1.2 0Z"/><path d="M74.8 36.8a.6.6 0 0 1-.3-.1 58 58 0 0 1-7.7-6.5c-4.6-4.7-6.8-9-6.4-12.5a8.5 8.5 0 0 1 4.2-6.2 6.4 6.4 0 0 1 3-.8c4 0 6.8 4 7.8 6 1.2-2 4.1-6 8.6-6a8 8 0 0 1 3.1.7 5.5 5.5 0 0 1 3.3 3.8c1 3.3-.3 8-3.4 12.2a28.2 28.2 0 0 1-12 9.4.6.6 0 0 1-.2 0Z" class="cls-19"/><path d="M67.6 11.3c4.8 0 7.8 6.7 7.8 6.7s3.2-6.7 8.6-6.7a7.5 7.5 0 0 1 3 .6c4.4 1.9 4.1 8.8-.4 15.1a27.8 27.8 0 0 1-11.8 9.2 56.8 56.8 0 0 1-7.5-6.4C62 24.5 57.3 17 65 12a5.8 5.8 0 0 1 2.7-.7m0-1.2a6.8 6.8 0 0 0-3.2.9h-.1c-2.7 1.8-4.2 4-4.5 6.6-.4 3.8 1.8 8.2 6.6 13a57 57 0 0 0 7.7 6.6 1.2 1.2 0 0 0 .7.2 1.3 1.3 0 0 0 .4-.1 28.8 28.8 0 0 0 12.3-9.6c3-4.4 4.4-9.1 3.4-12.7a6.2 6.2 0 0 0-3.6-4.2 8.8 8.8 0 0 0-3.4-.6c-4.2 0-7 3.3-8.6 5.5-1.3-2.3-4-5.6-7.8-5.6Z" class="cls-7"/><path d="M86.6 27a10 10 0 0 0-8.4-5.5c-6.3-.5-9.4 4.2-11 8.3-5-5.3-9.8-12.8-2.2-17.8 6.3-3.3 10.5 6.1 10.5 6.1s4.2-9.2 11.4-6.1c4.5 1.8 4.2 8.7-.3 15Z" class="cls-20"/><ellipse cx="65.1" cy="16.9" class="cls-12" rx="3.8" ry="2.1" transform="rotate(-73 65 16.9)"/><path d="M105.2 23h-.2a31 31 0 0 1-4.7-2.5c-3-2-4.7-4-5-6a4.7 4.7 0 0 1 1.6-3.8 3.4 3.4 0 0 1 2.2-.9c1.8 0 3.3 1.4 4.1 2.3.5-1.5 1.8-4.2 4.7-4.2a4.8 4.8 0 0 1 .9 0 3.1 3.1 0 0 1 2.2 1.7c1 1.7.8 4.4-.3 7a15.3 15.3 0 0 1-5.2 6.4.4.4 0 0 1-.3 0Z" class="cls-19"/><path d="M108 8.3a5.2 5.2 0 0 1 .8 0c2.5.5 3.2 4.1 1.6 8a15 15 0 0 1-5.1 6.2 30.8 30.8 0 0 1-4.8-2.5c-3.3-2.2-6.7-5.5-3.3-9.1a3 3 0 0 1 2-.8c2.2 0 4.2 2.8 4.2 2.8s1-4.6 4.6-4.6m0-1c-2.8 0-4.3 2.3-5 3.8a6.1 6.1 0 0 0-3.9-1.9 3.8 3.8 0 0 0-2.5 1 .2.2 0 0 0 0 .1 5.1 5.1 0 0 0-1.7 4.2c.2 2.1 2 4.2 5.1 6.3a31.4 31.4 0 0 0 4.9 2.5.8.8 0 0 0 .3.1.9.9 0 0 0 .6-.2 15.7 15.7 0 0 0 5.3-6.5c1.2-2.8 1.3-5.5.4-7.4a3.5 3.5 0 0 0-2.6-1.9 4.8 4.8 0 0 0-1 0Z" class="cls-7"/><path d="M110.3 16.3a5.3 5.3 0 0 0-5-1.9c-3.4.5-4.4 3.3-4.7 5.6-3.4-2.1-6.8-5.5-3.4-9 3-2.5 6.3 2 6.3 2s1.1-5.3 5.3-4.6c2.5.4 3.2 4 1.5 7.9Z" class="cls-20"/><ellipse cx="97.8" cy="13.5" class="cls-12" rx="2" ry="1.1" transform="rotate(-85.7 97.8 13.5)"/><path d="M44.3 15.5a.5.5 0 0 1-.4-.2 31 31 0 0 1-2.8-4.6c-1.6-3.3-2-5.8-1.2-7.7A4.7 4.7 0 0 1 43.2.5a3.7 3.7 0 0 1 .7 0c2.8 0 3.8 3 4 4.4A6.8 6.8 0 0 1 52 3.2a4.2 4.2 0 0 1 2.8 1.1 3.1 3.1 0 0 1 1 2.6c0 2-1.5 4.1-3.7 5.8a15.3 15.3 0 0 1-7.8 2.8Z" class="cls-19"/><path d="M44 1c3.2 0 3.7 4.9 3.7 4.9s2-2.2 4.3-2.2a3.8 3.8 0 0 1 2.6 1c2 1.7.6 5.2-2.8 7.6a15 15 0 0 1-7.5 2.7 30.2 30.2 0 0 1-2.8-4.5c-1.8-3.6-2.9-8.3 1.9-9.5a2.9 2.9 0 0 1 .5 0m0-1a4.3 4.3 0 0 0-.7.1A5.1 5.1 0 0 0 39.4 3c-.8 2-.5 4.7 1.2 8a32.3 32.3 0 0 0 2.8 4.7 1 1 0 0 0 .8.4 15.7 15.7 0 0 0 8-2.9c2.5-1.7 4-4 4-6a3.6 3.6 0 0 0-1.2-3 4.7 4.7 0 0 0-3-1.5 6.8 6.8 0 0 0-3.8 1.4C47.8 2.4 46.6 0 44 0Z" class="cls-7"/><path d="M51.8 12.3a5.3 5.3 0 0 0-3.3-4.2c-3.2-1.3-5.6.5-7 2.4-1.8-3.6-2.9-8.3 1.9-9.5 3.7-.6 4.3 4.9 4.3 4.9s3.7-4 6.9-1.2c2 1.7.6 5.1-2.8 7.6Z" class="cls-20"/><ellipse cx="42.6" cy="3.5" class="cls-12" rx="2" ry="1.1" transform="rotate(-54.7 42.6 3.5)"/><path d="M64.2 60.1a.5.5 0 0 1-.2 0 30 30 0 0 1-4.9-2.3C56 55.9 54.3 54 54 52a4.7 4.7 0 0 1 1.4-3.9 3.4 3.4 0 0 1 2.3-1 6.3 6.3 0 0 1 4 2.1c.6-1.8 2-4.3 4.8-4.3a5.6 5.6 0 0 1 .7 0 3.1 3.1 0 0 1 2.3 1.6c1 1.6 1 4.3-.1 7a15.2 15.2 0 0 1-5 6.5.4.4 0 0 1-.3.1Z" class="cls-19"/><path d="M66.5 45.4a4.7 4.7 0 0 1 .7 0c2.5.4 3.3 4 1.8 7.9a14.9 14.9 0 0 1-4.8 6.4 30.3 30.3 0 0 1-4.8-2.4c-3.5-2-7-5.3-3.6-9a3 3 0 0 1 2-.8c2.2 0 4.2 2.7 4.2 2.7s.9-4.8 4.5-4.8m0-1c-2.8 0-4.3 2.4-5 4a6.2 6.2 0 0 0-3.8-1.7 3.8 3.8 0 0 0-2.6 1 5.1 5.1 0 0 0-1.6 4.3c.4 2.1 2.1 4.2 5.4 6.1a31.6 31.6 0 0 0 5 2.4.8.8 0 0 0 .3 0 1 1 0 0 0 .5-.1 15.8 15.8 0 0 0 5.2-6.8c1.1-2.7 1.1-5.5.1-7.3a3.6 3.6 0 0 0-2.6-1.8 6.5 6.5 0 0 0-.8 0Z" class="cls-7"/><path d="M69 53.3a5.3 5.3 0 0 0-5.1-1.7c-3.4.6-4.3 3.5-4.6 5.8-3.4-2-6.9-5.4-3.6-9 2.9-2.6 6.3 1.8 6.3 1.8s1-5.4 5.2-4.8c2.5.4 3.3 4 1.8 8Z" class="cls-20"/><ellipse cx="56.5" cy="51" class="cls-12" rx="2" ry="1.1" transform="rotate(-87.5 56.5 51)"/><path d="M102.8 47.7a.4.4 0 0 1-.3-.1 30.9 30.9 0 0 1-3.7-4c-2.2-2.9-3.1-5.3-2.7-7.3a4.7 4.7 0 0 1 2.8-3 3.7 3.7 0 0 1 1.3-.4c2.3 0 3.6 2.4 4.2 3.7.8-1 2.4-2.6 4.5-2.6a4.4 4.4 0 0 1 2.1.6 3.1 3.1 0 0 1 1.6 2.4c.3 1.9-.7 4.3-2.6 6.4a15.4 15.4 0 0 1-7 4.3Z" class="cls-19"/><path d="M100.2 33.4c2.8 0 4 4.2 4 4.2s2-3 4.7-3a3.9 3.9 0 0 1 1.9.4c2.3 1.3 1.7 5-1.2 8a15 15 0 0 1-6.8 4.2 30.8 30.8 0 0 1-3.6-3.9c-2.5-3.2-4.5-7.5-.1-9.7a3.4 3.4 0 0 1 1.1-.2m0-1a4 4 0 0 0-1.5.4 5.1 5.1 0 0 0-3 3.4c-.5 2 .4 4.7 2.7 7.6a31 31 0 0 0 3.7 4 .9.9 0 0 0 .6.3.7.7 0 0 0 .3 0 15.7 15.7 0 0 0 7.3-4.5c2-2.2 3-4.7 2.7-6.8a3.6 3.6 0 0 0-1.8-2.6 4.8 4.8 0 0 0-2.4-.7 6.2 6.2 0 0 0-4.3 2.3c-.8-1.4-2.1-3.3-4.3-3.3Z" class="cls-7"/><path d="M109.6 43a5.3 5.3 0 0 0-4-3.4c-3.4-.6-5.4 1.7-6.4 3.7-2.5-3.1-4.5-7.4-.1-9.6 3.6-1.4 5.2 3.9 5.2 3.9s2.8-4.6 6.5-2.6c2.3 1.3 1.7 5-1.2 8Z" class="cls-20"/><ellipse cx="98.8" cy="36.3" class="cls-12" rx="2" ry="1.1" transform="rotate(-66.3 98.8 36.3)"/><path d="M69.9 39s1.3-3.4 5.9-4.2 6.1 1.3 6.1 1.3" class="cls-9"/><path fill="none" stroke="#5b2307" stroke-linecap="round" stroke-linejoin="round" stroke-width="1.2" d="M69.9 39s1.3-3.4 5.9-4.2 6.1 1.3 6.1 1.3"/></g></g></svg>